Preview_RobotoExtremo-wght_900.00_wdth_125.00_opsz_14.00_GRAD_0.00_XTRA_468.00_XOPQ_96.00_YOPQ_79.00.ufo
<glyph name="exclam" format="2">
  <advance width="768"/>
  <unicode hex="0021"/>
  <outline>
    <contour>
      <point x="134.52307692307693" y="191.03076923076924" type="qcurve" smooth="yes"/>
      <point x="134.52307692307693" y="277.6923076923077"/>
      <point x="262.03503407984425" y="403.0615384615385"/>
      <point x="383.34978383641675" y="403.0615384615385" type="qcurve" smooth="yes"/>
      <point x="504.2799182083739" y="403.0615384615385"/>
      <point x="633.1611061343721" y="277.6923076923077"/>
      <point x="633.1611061343721" y="191.03076923076924" type="qcurve" smooth="yes"/>
      <point x="633.1611061343721" y="103.36923076923077"/>
      <point x="504.6491489776047" y="-22.0"/>
      <point x="383.8420915287245" y="-22.0" type="qcurve" smooth="yes"/>
      <point x="263.03503407984425" y="-22.0"/>
      <point x="134.52307692307693" y="103.36923076923077"/>
    </contour>
    <contour>
      <point x="200.13615968841287" y="520.7076923076924" type="line"/>
      <point x="168.81166114897763" y="1456.0" type="line"/>
      <point x="598.8725219084712" y="1456.0" type="line"/>
      <point x="567.424946445959" y="520.7076923076924" type="line"/>
    </contour>
  </outline>
</glyph>
<glyph name="quotedbl" format="2">
  <advance width="986"/>
  <unicode hex="0022"/>
  <outline>
    <contour>
      <point x="88.59162220058423" y="688.9692307692308" type="line"/>
      <point x="62.07692307692308" y="1238.3538461538462" type="line"/>
      <point x="62.07692307692308" y="1456.0" type="line"/>
      <point x="410.83792794547225" y="1456.0" type="line"/>
      <point x="410.83792794547225" y="1238.3538461538462" type="line"/>
      <point x="386.2001518987342" y="688.9692307692308" type="line"/>
    </contour>
    <contour>
      <point x="600.891088607595" y="688.9692307692308" type="line"/>
      <point x="574.3763894839337" y="1238.3538461538462" type="line"/>
      <point x="574.3763894839337" y="1456.0" type="line"/>
      <point x="924.014317429406" y="1456.0" type="line"/>
      <point x="924.014317429406" y="1238.3538461538462" type="line"/>
      <point x="899.376541382668" y="688.9692307692308" type="line"/>
    </contour>
  </outline>
</glyph>
<glyph name="numbersign" format="2">
  <advance width="1738"/>
  <unicode hex="0023"/>
  <outline>
    <contour>
      <point x="168.53846153846155" y="-20.0" type="line"/>
      <point x="654.3151898734177" y="1449.7848101265822" type="line"/>
      <point x="993.6957935735152" y="1449.7848101265822" type="line"/>
      <point x="507.04214216163587" y="-19.0" type="line"/>
    </contour>
    <contour>
      <point x="768.5530671859785" y="-20.0" type="line"/>
      <point x="1254.7682570593965" y="1449.7848101265822" type="line"/>
      <point x="1595.2719376825705" y="1449.7848101265822" type="line"/>
      <point x="1109.056747809153" y="-20.0" type="line"/>
    </contour>
    <contour>
      <point x="51.69230769230768" y="300.0" type="line"/>
      <point x="51.69230769230768" y="636.2307692307692" type="line"/>
      <point x="1611.341363193768" y="636.2307692307692" type="line"/>
      <point x="1611.341363193768" y="300.0" type="line"/>
    </contour>
    <contour>
      <point x="152.34595910418696" y="796.554040895813" type="line"/>
      <point x="152.34595910418696" y="1129.7848101265822" type="line"/>
      <point x="1710.1180915287246" y="1129.7848101265822" type="line"/>
      <point x="1710.1180915287246" y="796.554040895813" type="line"/>
    </contour>
  </outline>
</glyph>
<glyph name="dollar" format="2">
  <advance width="1333"/>
  <unicode hex="0024"/>
  <outline>
    <contour>
      <point x="18.55949367088607" y="430.9150925024342" type="qcurve" smooth="yes"/>
      <point x="18.55949367088607" y="453.55384615384617" type="line"/>
      <point x="414.67945472249266" y="453.55384615384617" type="line"/>
      <point x="414.67945472249266" y="437.5458617332035" type="line" smooth="yes"/>
      <point x="414.55637779941577" y="362.37429406037"/>
      <point x="555.011100292113" y="281.7715676728335"/>
      <point x="674.6965920155794" y="281.7715676728335" type="qcurve" smooth="yes"/>
      <point x="793.7820837390458" y="281.7715676728335"/>
      <point x="920.2712755598832" y="339.75949367088606"/>
      <point x="920.2712755598832" y="400.0769230769231" type="qcurve" smooth="yes"/>
      <point x="920.2712755598832" y="490.73651411879257"/>
      <point x="842.5123661148978" y="539.5986368062318"/>
      <point x="567.1369036027264" y="588.0804284323272" type="qcurve" smooth="yes"/>
      <point x="282.9147030185005" y="640.658812074002"/>
      <point x="24.590262901655308" y="847.0321324245375"/>
      <point x="24.590262901655308" y="1030.150730282376" type="qcurve" smooth="yes"/>
      <point x="24.590262901655308" y="1212.3382667964947"/>
      <point x="374.61538461538464" y="1458.2153846153847"/>
      <point x="664.5888997078871" y="1458.2153846153847" type="qcurve" smooth="yes"/>
      <point x="952.0159688412854" y="1458.2153846153847"/>
      <point x="1315.129698149951" y="1214.1764362220058"/>
      <point x="1315.129698149951" y="1032.2270691333983" type="qcurve" smooth="yes"/>
      <point x="1315.129698149951" y="1011.7692307692308" type="line"/>
      <point x="892.2405063291139" y="1011.7692307692308" type="line"/>
      <point x="892.2405063291139" y="1025.2116845180137" type="line" smooth="yes"/>
      <point x="892.2405063291139" y="1063.590652385589"/>
      <point x="798.0473222979551" y="1183.7655306718598"/>
      <point x="666.311976630964" y="1183.7655306718598" type="qcurve" smooth="yes"/>
      <point x="533.207400194742" y="1183.7655306718598"/>
      <point x="448.10282375851995" y="1107.0103213242455"/>
      <point x="448.10282375851995" y="1058.7199610516068" type="qcurve" smooth="yes"/>
      <point x="448.10282375851995" y="995.6874391431353"/>
      <point x="535.4919182083739" y="940.7108081791625"/>
      <point x="792.144888023369" y="889.0019474196689" type="qcurve" smooth="yes"/>
      <point x="1072.2907497565725" y="829.6278481012658"/>
      <point x="1344.6607594936709" y="639.3456669912366"/>
      <point x="1344.6607594936709" y="441.2769230769231" type="qcurve" smooth="yes"/>
      <point x="1344.6607594936709" y="248.91217137293086"/>
      <point x="973.0738072054528" y="-1.9298928919182086"/>
      <point x="675.9273612463486" y="-1.9298928919182086" type="qcurve" smooth="yes"/>
      <point x="380.9581304771178" y="-1.9298928919182086"/>
      <point x="18.55949367088607" y="228.0192794547225"/>
    </contour>
    <contour>
      <point x="523.3148977604674" y="-148.35092502434276" type="line"/>
      <point x="523.3148977604674" y="666.4615384615385" type="line"/>
      <point x="820.2253164556962" y="666.4615384615385" type="line"/>
      <point x="820.2253164556962" y="100.76299902629016" type="line"/>
      <point x="837.895423563778" y="91.64907497565726" type="line"/>
      <point x="837.895423563778" y="-148.35092502434276" type="line"/>
    </contour>
    <contour>
      <point x="524.0590068159688" y="789.5384615384615" type="line"/>
      <point x="524.4273145082765" y="1353.253164556962" type="line"/>
      <point x="506.388899707887" y="1363.253164556962" type="line"/>
      <point x="506.388899707887" y="1607.6835443037974" type="line"/>
      <point x="820.1623485881208" y="1607.6835443037974" type="line"/>
      <point x="819.9694255111976" y="789.5384615384615" type="line"/>
    </contour>
  </outline>
</glyph>
<glyph name="ampersand" format="2">
  <advance width="1622"/>
  <unicode hex="0026"/>
  <outline>
    <contour>
      <point x="71.38461538461539" y="380.0" type="qcurve" smooth="yes"/>
      <point x="71.38461538461539" y="549.9461538461538"/>
      <point x="283.81357351509246" y="740.5923076923077"/>
      <point x="485.9548782862707" y="842.7692307692307" type="qcurve" smooth="yes"/>
      <point x="755.3755598831548" y="968.7461538461539" type="line" smooth="yes"/>
      <point x="829.9832521908471" y="1006.9076923076923"/>
      <point x="873.2053982473224" y="1057.4615384615383"/>
      <point x="873.2053982473224" y="1105.8461538461538" type="qcurve" smooth="yes"/>
      <point x="873.2053982473224" y="1169.3461538461538"/>
      <point x="812.6746290165531" y="1207.7230769230769"/>
      <point x="752.5284751703992" y="1207.7230769230769" type="qcurve" smooth="yes"/>
      <point x="690.2592444011685" y="1207.7230769230769"/>
      <point x="624.8515520934761" y="1159.2615384615385"/>
      <point x="624.8515520934761" y="1097.446153846154" type="qcurve" smooth="yes"/>
      <point x="624.8515520934761" y="1043.7769230769231"/>
      <point x="696.8881518987342" y="951.2461538461538"/>
      <point x="774.1340603700097" y="864.6615384615385" type="qcurve" smooth="yes"/>
      <point x="1603.2397039922105" y="0.0" type="line"/>
      <point x="1130.0438597857838" y="0.0" type="line"/>
      <point x="471.36560856864656" y="671.876923076923" type="line" smooth="yes"/>
      <point x="320.4315053554041" y="821.3153846153846"/>
      <point x="199.22332229795518" y="994.0000000000001"/>
      <point x="199.22332229795518" y="1094.7384615384615" type="qcurve" smooth="yes"/>
      <point x="199.22332229795518" y="1282.3538461538462"/>
      <point x="506.9281285296982" y="1486.0"/>
      <point x="753.8823213242455" y="1486.0" type="qcurve" smooth="yes"/>
      <point x="998.2903602726387" y="1486.0"/>
      <point x="1290.449012658228" y="1294.6"/>
      <point x="1290.449012658228" y="1112.6461538461538" type="qcurve" smooth="yes"/>
      <point x="1290.449012658228" y="983.2538461538461"/>
      <point x="1148.321476144109" y="816.6307692307693"/>
      <point x="1005.5978578383642" y="746.6769230769231" type="qcurve" smooth="yes"/>
      <point x="731.2079454722493" y="618.0923076923077" type="line" smooth="yes"/>
      <point x="593.395557769388" y="548.2201004993185"/>
      <point x="506.03616747809156" y="463.4384615384615"/>
      <point x="506.03616747809156" y="407.7846153846154" type="qcurve" smooth="yes"/>
      <point x="506.03616747809156" y="340.7769230769231"/>
      <point x="599.9181850048685" y="270.5846153846154"/>
      <point x="676.9272482960077" y="270.5846153846154" type="qcurve" smooth="yes"/>
      <point x="841.5046621226875" y="270.5846153846154"/>
      <point x="1100.7746290165533" y="485.58461538461535"/>
      <point x="1105.574629016553" y="684.8307692307692" type="qcurve"/>
      <point x="1519.325935735151" y="684.8307692307692" type="line"/>
      <point x="1519.325935735151" y="390.83076923076925"/>
      <point x="1027.8991781888997" y="-20.0"/>
      <point x="675.9426329113924" y="-20.0" type="qcurve" smooth="yes"/>
      <point x="381.030870496592" y="-20.0"/>
      <point x="71.38461538461539" y="207.15384615384616"/>
    </contour>
  </outline>
</glyph>
<glyph name="quotesingle" format="2">
  <advance width="524"/>
  <unicode hex="0027"/>
  <outline>
    <contour>
      <point x="113.7860370009737" y="688.9692307692308" type="line"/>
      <point x="72.07692307692308" y="1238.3538461538462" type="line"/>
      <point x="72.07692307692308" y="1456.0" type="line"/>
      <point x="452.22675754625124" y="1456.0" type="line"/>
      <point x="452.22675754625124" y="1238.3538461538462" type="line"/>
      <point x="411.3945666991237" y="688.9692307692308" type="line"/>
    </contour>
  </outline>
</glyph>
<glyph name="parenleft" format="2">
  <advance width="823"/>
  <unicode hex="0028"/>
  <outline>
    <contour>
      <point x="797.4727166504382" y="-438.0" type="line"/>
      <point x="489.5716845180136" y="-353.5076923076923"/>
      <point x="91.92307692307692" y="94.07400194741966"/>
      <point x="91.92307692307692" y="514.876923076923" type="qcurve" smooth="yes"/>
      <point x="91.92307692307692" y="525.0" type="line" smooth="yes"/>
      <point x="91.92307692307692" y="892.2965920155793"/>
      <point x="455.5716845180136" y="1375.5076923076924"/>
      <point x="796.4727166504382" y="1476.0" type="qcurve"/>
      <point x="796.4727166504382" y="1209.618305744888" type="line"/>
      <point x="684.0143192431738" y="1149.1068436179137"/>
      <point x="508.21887049659205" y="835.8527750730283"/>
      <point x="508.21887049659205" y="532.0" type="qcurve" smooth="yes"/>
      <point x="508.21887049659205" y="508.0" type="line" smooth="yes"/>
      <point x="508.21887049659205" y="174.90671859785783"/>
      <point x="667.0143192431738" y="-106.10684361791373"/>
      <point x="797.4727166504382" y="-169.618305744888" type="qcurve"/>
    </contour>
  </outline>
</glyph>
<glyph name="parenright" format="2">
  <advance width="823"/>
  <unicode hex="0029"/>
  <outline>
    <contour>
      <point x="25.71538461538462" y="-436.0" type="qcurve"/>
      <point x="25.71538461538462" y="-169.618305744888" type="line"/>
      <point x="144.12773125608572" y="-122.29522882181111"/>
      <point x="315.96923076923076" y="174.90671859785783"/>
      <point x="315.96923076923076" y="508.0" type="qcurve" smooth="yes"/>
      <point x="315.96923076923076" y="532.0" type="line" smooth="yes"/>
      <point x="315.96923076923076" y="835.8527750730283"/>
      <point x="138.12773125608572" y="1148.2952288218112"/>
      <point x="25.71538461538462" y="1208.618305744888" type="qcurve"/>
      <point x="25.71538461538462" y="1476.0" type="line"/>
      <point x="324.6164167478091" y="1385.5076923076924"/>
      <point x="731.2650243427458" y="910.4196689386563"/>
      <point x="731.2650243427458" y="525.123076923077" type="qcurve" smooth="yes"/>
      <point x="731.2650243427458" y="515.0" type="line" smooth="yes"/>
      <point x="731.2650243427458" y="94.19707887049658"/>
      <point x="339.6164167478091" y="-348.5076923076923"/>
    </contour>
  </outline>
</glyph>
<glyph name="asterisk" format="2">
  <advance width="1224"/>
  <unicode hex="002A"/>
  <outline>
    <contour>
      <point x="29.384615384615383" y="927.046153846154" type="line"/>
      <point x="152.04948782862706" y="1286.7" type="line"/>
      <point x="443.1790808179163" y="1157.269230769231" type="line"/>
      <point x="413.1830496592016" y="1476.0" type="line"/>
      <point x="809.9972658227848" y="1476.0" type="line"/>
      <point x="780.2473885102238" y="1157.269230769231" type="line"/>
      <point x="1071.3769814995132" y="1286.823076923077" type="line"/>
      <point x="1193.9187770204478" y="927.1692307692308" type="line"/>
      <point x="882.8094683544304" y="860.2461538461538" type="line"/>
      <point x="1093.7178461538463" y="619.7384615384615" type="line"/>
      <point x="773.5843271665044" y="399.6615384615385" type="line"/>
      <point x="611.7747731256085" y="676.1153846153846" type="line"/>
      <point x="449.96521908471277" y="399.6615384615385" type="line"/>
      <point x="129.95477702044786" y="619.7384615384615" type="line"/>
      <point x="340.4939240506329" y="860.2461538461538" type="line"/>
    </contour>
  </outline>
</glyph>
<glyph name="plus" format="2">
  <advance width="1325"/>
  <unicode hex="002B"/>
  <outline>
    <contour>
      <point x="98.35805258033105" y="513.596299902629" type="line"/>
      <point x="98.35805258033105" y="838.5809152872444" type="line"/>
      <point x="1226.2709639727361" y="838.5809152872444" type="line"/>
      <point x="1226.2709639727361" y="513.596299902629" type="line"/>
    </contour>
    <contour>
      <point x="456.55820837390456" y="100.70185004868549" type="line"/>
      <point x="456.55820837390456" y="1247.2981499513144" type="line"/>
      <point x="866.1938851022396" y="1247.2981499513144" type="line"/>
      <point x="866.1938851022396" y="100.70185004868549" type="line"/>
    </contour>
  </outline>
</glyph>
<glyph name="comma" format="2">
  <advance width="693"/>
  <unicode hex="002C"/>
  <outline>
    <contour>
      <point x="49.7155793573515" y="-243.04615384615386" type="line"/>
      <point x="115.42469328140211" y="-164.76923076923077"/>
      <point x="176.33846153846153" y="8.03076923076923"/>
      <point x="176.33846153846153" y="118.1076923076923" type="qcurve" smooth="yes"/>
      <point x="176.33846153846153" y="400.61538461538464" type="line"/>
      <point x="546.3030185004869" y="400.61538461538464" type="line"/>
      <point x="546.5134800389485" y="118.6" type="line" smooth="yes"/>
      <point x="546.5134800389485" y="-29.630769230769232"/>
      <point x="405.70642259006814" y="-280.4769230769231"/>
      <point x="288.8313106134372" y="-370.7307692307692" type="qcurve"/>
    </contour>
  </outline>
</glyph>
<glyph name="hyphen" format="2">
  <advance width="747"/>
  <unicode hex="002D"/>
  <outline>
    <contour>
      <point x="41.723076923076924" y="459.86153846153843" type="line"/>
      <point x="41.723076923076924" y="798.9076923076924" type="line"/>
      <point x="705.1178383641675" y="798.9076923076924" type="line"/>
      <point x="705.1178383641675" y="459.86153846153843" type="line"/>
    </contour>
  </outline>
</glyph>
<glyph name="period" format="2">
  <advance width="738"/>
  <unicode hex="002E"/>
  <outline>
    <contour>
      <point x="107.75384615384615" y="209.29230769230767" type="qcurve" smooth="yes"/>
      <point x="107.75384615384615" y="305.9538461538462"/>
      <point x="238.30301850048687" y="441.09230769230766"/>
      <point x="359.09406037000974" y="441.09230769230766" type="qcurve" smooth="yes"/>
      <point x="480.76202531645566" y="441.09230769230766"/>
      <point x="610.3111976630963" y="305.9538461538462"/>
      <point x="610.3111976630963" y="210.29230769230767" type="qcurve" smooth="yes"/>
      <point x="610.3111976630963" y="113.35705521472391"/>
      <point x="480.76202531645566" y="-21.630769230769232"/>
      <point x="358.09406037000974" y="-21.630769230769232" type="qcurve" smooth="yes"/>
      <point x="238.30301850048687" y="-21.630769230769232"/>
      <point x="107.75384615384615" y="113.7262859839547"/>
    </contour>
  </outline>
</glyph>
<glyph name="slash" format="2">
  <advance width="719"/>
  <unicode hex="002F"/>
  <outline>
    <contour>
      <point x="-100.0" y="-125.0" type="line"/>
      <point x="477.5615384615385" y="1456.0" type="line"/>
      <point x="812.1915287244402" y="1456.0" type="line"/>
      <point x="232.9453748782863" y="-125.0" type="line"/>
    </contour>
  </outline>
</glyph>
<glyph name="two" format="2">
  <advance width="1273"/>
  <unicode hex="0032"/>
  <outline>
    <contour>
      <point x="30.0" y="0.0" type="line"/>
      <point x="30.0" y="238.0" type="line"/>
      <point x="597.0" y="806.0" type="line" smooth="yes"/>
      <point x="663.0" y="872.0"/>
      <point x="776.0" y="1008.0"/>
      <point x="776.0" y="1068.0" type="qcurve" smooth="yes"/>
      <point x="776.0" y="1118.0"/>
      <point x="704.0" y="1170.0"/>
      <point x="621.0" y="1170.0" type="qcurve" smooth="yes"/>
      <point x="531.0" y="1170.0"/>
      <point x="458.0" y="1084.0"/>
      <point x="458.0" y="995.0" type="qcurve" smooth="yes"/>
      <point x="458.0" y="948.0" type="line"/>
      <point x="16.0" y="948.0" type="line"/>
      <point x="16.0" y="1006.0" type="line" smooth="yes"/>
      <point x="16.0" y="1215.0"/>
      <point x="320.0" y="1485.0"/>
      <point x="618.0" y="1485.0" type="qcurve" smooth="yes"/>
      <point x="938.0" y="1485.0"/>
      <point x="1225.0" y="1268.0"/>
      <point x="1226.0" y="1081.0" type="qcurve" smooth="yes"/>
      <point x="1226.0" y="929.0"/>
      <point x="1063.0" y="720.0"/>
      <point x="943.0" y="600.0" type="qcurve" smooth="yes"/>
      <point x="622.0" y="311.0" type="line"/>
      <point x="1250.0" y="311.0" type="line"/>
      <point x="1250.0" y="0.0" type="line"/>
    </contour>
  </outline>
</glyph>
<glyph name="three" format="2">
  <advance width="1273"/>
  <unicode hex="0033"/>
  <outline>
    <contour>
      <point x="5.0" y="425.0" type="qcurve" smooth="yes"/>
      <point x="5.0" y="460.0" type="line"/>
      <point x="442.0" y="460.0" type="line"/>
      <point x="442.0" y="429.0" type="line" smooth="yes"/>
      <point x="442.0" y="359.0"/>
      <point x="524.0" y="278.0"/>
      <point x="622.0" y="278.0" type="qcurve" smooth="yes"/>
      <point x="720.0" y="278.0"/>
      <point x="807.0" y="364.0"/>
      <point x="807.0" y="452.0" type="qcurve" smooth="yes"/>
      <point x="807.0" y="530.0"/>
      <point x="706.0" y="606.0"/>
      <point x="586.0" y="606.0" type="qcurve" smooth="yes"/>
      <point x="420.0" y="606.0" type="line"/>
      <point x="420.0" y="899.0" type="line"/>
      <point x="577.0" y="899.0" type="line" smooth="yes"/>
      <point x="672.0" y="899.0"/>
      <point x="764.0" y="976.0"/>
      <point x="764.0" y="1048.0" type="qcurve" smooth="yes"/>
      <point x="764.0" y="1109.0"/>
      <point x="692.0" y="1178.0"/>
      <point x="609.0" y="1178.0" type="qcurve" smooth="yes"/>
      <point x="528.0" y="1178.0"/>
      <point x="458.0" y="1109.0"/>
      <point x="458.0" y="1042.0" type="qcurve" smooth="yes"/>
      <point x="458.0" y="1021.0" type="line"/>
      <point x="22.0" y="1021.0" type="line"/>
      <point x="22.0" y="1040.0" type="line" smooth="yes"/>
      <point x="22.0" y="1227.0"/>
      <point x="326.0" y="1486.0"/>
      <point x="623.0" y="1486.0" type="qcurve" smooth="yes"/>
      <point x="938.0" y="1486.0"/>
      <point x="1207.0" y="1256.0"/>
      <point x="1207.0" y="1118.0" type="qcurve" smooth="yes"/>
      <point x="1207.0" y="982.0"/>
      <point x="1082.0" y="804.0"/>
      <point x="947.0" y="766.0" type="qcurve"/>
      <point x="947.0" y="762.0" type="line"/>
      <point x="1091.0" y="735.0"/>
      <point x="1255.0" y="557.0"/>
      <point x="1255.0" y="425.0" type="qcurve" smooth="yes"/>
      <point x="1255.0" y="217.0"/>
      <point x="936.0" y="-29.0"/>
      <point x="613.0" y="-29.0" type="qcurve" smooth="yes"/>
      <point x="301.0" y="-29.0"/>
      <point x="5.0" y="220.0"/>
    </contour>
  </outline>
</glyph>
<glyph name="five" format="2">
  <advance width="1273"/>
  <unicode hex="0035"/>
  <outline>
    <contour>
      <point x="4.0" y="419.0" type="qcurve" smooth="yes"/>
      <point x="4.0" y="451.0" type="line"/>
      <point x="446.0" y="451.0" type="line"/>
      <point x="446.0" y="422.0" type="line" smooth="yes"/>
      <point x="446.0" y="351.0"/>
      <point x="542.0" y="278.0"/>
      <point x="636.0" y="278.0" type="qcurve" smooth="yes"/>
      <point x="737.0" y="278.0"/>
      <point x="815.0" y="374.0"/>
      <point x="815.0" y="470.0" type="qcurve" smooth="yes"/>
      <point x="815.0" y="566.0"/>
      <point x="731.0" y="658.0"/>
      <point x="635.0" y="658.0" type="qcurve" smooth="yes"/>
      <point x="563.0" y="658.0"/>
      <point x="481.0" y="599.0"/>
      <point x="448.0" y="554.0" type="qcurve"/>
      <point x="69.0" y="728.0" type="line"/>
      <point x="144.0" y="1456.0" type="line"/>
      <point x="1165.0" y="1456.0" type="line"/>
      <point x="1165.0" y="1133.0" type="line"/>
      <point x="489.0" y="1135.0" type="line"/>
      <point x="468.0" y="901.0" type="line"/>
      <point x="505.0" y="931.0"/>
      <point x="636.0" y="977.0"/>
      <point x="735.0" y="977.0" type="qcurve" smooth="yes"/>
      <point x="972.0" y="977.0"/>
      <point x="1256.0" y="725.0"/>
      <point x="1256.0" y="499.0" type="qcurve" smooth="yes"/>
      <point x="1256.0" y="263.0"/>
      <point x="951.0" y="-29.0"/>
      <point x="637.0" y="-29.0" type="qcurve" smooth="yes"/>
      <point x="320.0" y="-29.0"/>
      <point x="4.0" y="223.0"/>
    </contour>
  </outline>
</glyph>
<glyph name="colon" format="2">
  <advance width="742"/>
  <unicode hex="003A"/>
  <outline>
    <contour>
      <point x="125.01538461538462" y="198.20000000000002" type="qcurve" smooth="yes"/>
      <point x="125.01538461538462" y="287.7767032967033"/>
      <point x="250.66426484907498" y="416.66153846153844"/>
      <point x="370.4319376825706" y="416.66153846153844" type="qcurve" smooth="yes"/>
      <point x="489.3226874391432" y="416.66153846153844"/>
      <point x="616.8484907497566" y="287.7767032967033"/>
      <point x="616.8484907497566" y="198.20000000000002" type="qcurve" smooth="yes"/>
      <point x="616.8484907497566" y="107.04069478908188"/>
      <point x="489.7260720545277" y="-21.630769230769232"/>
      <point x="370.7651684518014" y="-21.630769230769232" type="qcurve" smooth="yes"/>
      <point x="251.92734177215192" y="-21.630769230769232"/>
      <point x="125.01538461538462" y="107.40992555831265"/>
    </contour>
    <contour>
      <point x="125.01538461538462" y="886.3538461538461" type="qcurve" smooth="yes"/>
      <point x="125.01538461538462" y="978.1514113504804"/>
      <point x="250.92734177215192" y="1105.5347692307694"/>
      <point x="370.76516845180134" y="1105.5347692307694" type="qcurve" smooth="yes"/>
      <point x="489.7260720545277" y="1105.5347692307694"/>
      <point x="616.8484907497566" y="978.1514113504804"/>
      <point x="616.8484907497566" y="886.3538461538462" type="qcurve" smooth="yes"/>
      <point x="616.8484907497566" y="795.5810989010989"/>
      <point x="489.3226874391431" y="667.5230769230769"/>
      <point x="370.4319376825706" y="667.5230769230769" type="qcurve" smooth="yes"/>
      <point x="251.66426484907498" y="667.5230769230769"/>
      <point x="125.01538461538462" y="795.9503296703297"/>
    </contour>
  </outline>
</glyph>
<glyph name="semicolon" format="2">
  <advance width="742"/>
  <unicode hex="003B"/>
  <outline>
    <contour>
      <point x="81.82332229795522" y="-243.2923076923077" type="line"/>
      <point x="147.28628237585198" y="-165.26153846153846"/>
      <point x="208.58558909444986" y="6.923076923076923"/>
      <point x="208.07697370983445" y="116.63076923076923" type="qcurve" smooth="yes"/>
      <point x="207.70866601752678" y="374.4" type="line"/>
      <point x="553.093670886076" y="374.4" type="line"/>
      <point x="553.3918247322298" y="117.12307692307692" type="line" smooth="yes"/>
      <point x="553.3918247322298" y="-30.738461538461536"/>
      <point x="429.41881986368065" y="-284.4769230769231"/>
      <point x="318.4775150925024" y="-370.7307692307692" type="qcurve"/>
    </contour>
    <contour>
      <point x="131.7846153846154" y="886.3538461538461" type="qcurve" smooth="yes"/>
      <point x="131.7846153846154" y="978.1514113504804"/>
      <point x="253.16718431627302" y="1105.5347692307694"/>
      <point x="368.76516845180134" y="1105.5347692307694" type="qcurve" smooth="yes"/>
      <point x="483.49162428408175" y="1105.5347692307694"/>
      <point x="606.0792599805258" y="978.1514113504804"/>
      <point x="606.0792599805258" y="886.3538461538462" type="qcurve" smooth="yes"/>
      <point x="606.0792599805258" y="796.194540942928"/>
      <point x="483.8149951314508" y="667.5230769230769"/>
      <point x="368.4319376825706" y="667.5230769230769" type="qcurve" smooth="yes"/>
      <point x="254.04888023369037" y="667.5230769230769"/>
      <point x="131.7846153846154" y="796.5637717121588"/>
    </contour>
  </outline>
</glyph>
<glyph name="less" format="2">
  <advance width="1311"/>
  <unicode hex="003C"/>
  <outline>
    <contour>
      <point x="1099.2655890944498" y="98.45413826679649" type="line"/>
      <point x="201.64775073028235" y="519.492599805258" type="line"/>
      <point x="201.64775073028235" y="836.8618305744889" type="line"/>
      <point x="1099.2655890944498" y="1259.1310613437195" type="line"/>
      <point x="1099.2655890944498" y="861.7740993184032" type="line"/>
      <point x="656.8885335929892" y="667.7341772151899" type="line"/>
      <point x="1099.2655890944498" y="474.92502434274587" type="line"/>
    </contour>
  </outline>
</glyph>
<glyph name="equal" format="2">
  <advance width="1338"/>
  <unicode hex="003D"/>
  <outline>
    <contour>
      <point x="229.81725413826678" y="309.7051606621227" type="line"/>
      <point x="229.81725413826678" y="604.4775073028238" type="line"/>
      <point x="1108.104070107108" y="604.4775073028238" type="line"/>
      <point x="1108.104070107108" y="309.7051606621227" type="line"/>
    </contour>
    <contour>
      <point x="229.81725413826678" y="770.4564751703994" type="line"/>
      <point x="229.81725413826678" y="1065.2288218111003" type="line"/>
      <point x="1108.104070107108" y="1065.2288218111003" type="line"/>
      <point x="1108.104070107108" y="770.4564751703994" type="line"/>
    </contour>
  </outline>
</glyph>
<glyph name="greater" format="2">
  <advance width="1311"/>
  <unicode hex="003E"/>
  <outline>
    <contour>
      <point x="212.07111976630964" y="98.45413826679649" type="line"/>
      <point x="212.07111976630964" y="495.81110029211294" type="line"/>
      <point x="654.4481752677702" y="689.8510223953261" type="line"/>
      <point x="212.07111976630964" y="882.6601752677702" type="line"/>
      <point x="212.07111976630964" y="1259.1310613437195" type="line"/>
      <point x="1109.6889581304772" y="838.092599805258" type="line"/>
      <point x="1109.6889581304772" y="520.7233690360273" type="line"/>
    </contour>
  </outline>
</glyph>
<glyph name="question" format="2">
  <advance width="1284"/>
  <unicode hex="003F"/>
  <outline>
    <contour>
      <point x="343.13018500486857" y="191.03076923076924" type="qcurve" smooth="yes"/>
      <point x="343.13018500486857" y="277.6923076923077"/>
      <point x="473.1344498539435" y="403.0615384615385"/>
      <point x="594.4338149951315" y="403.0615384615385" type="qcurve" smooth="yes"/>
      <point x="715.7331801363194" y="403.0615384615385"/>
      <point x="844.7374449853943" y="277.6923076923077"/>
      <point x="844.7374449853943" y="191.03076923076924" type="qcurve" smooth="yes"/>
      <point x="844.7374449853943" y="103.36923076923077"/>
      <point x="715.7331801363194" y="-22.0"/>
      <point x="594.4338149951315" y="-22.0" type="qcurve" smooth="yes"/>
      <point x="473.62675754625116" y="-22.0"/>
      <point x="343.13018500486857" y="103.36923076923077"/>
    </contour>
    <contour>
      <point x="49.78461538461538" y="1001.2384615384615" type="line"/>
      <point x="49.78461538461538" y="1052.3307692307692" type="line" smooth="yes"/>
      <point x="49.78461538461538" y="1258.1692307692308"/>
      <point x="374.7201908471276" y="1476.0"/>
      <point x="629.0370983446933" y="1476.0" type="qcurve" smooth="yes"/>
      <point x="886.5915365141188" y="1476.0"/>
      <point x="1222.7606738072054" y="1255.0615384615385"/>
      <point x="1222.7606738072054" y="1052.753846153846" type="qcurve" smooth="yes"/>
      <point x="1222.7606738072054" y="914.7846153846153"/>
      <point x="1076.4276027263875" y="744.6769230769231"/>
      <point x="963.9319610516065" y="682.9538461538461" type="qcurve" smooth="yes"/>
      <point x="870.4472950340797" y="637.0384615384615"/>
      <point x="813.0241674780916" y="514.3846153846155"/>
      <point x="813.0241674780916" y="461.3538461538462" type="qcurve" smooth="yes"/>
      <point x="813.0241674780916" y="447.41538461538465" type="line"/>
      <point x="375.03229211295036" y="447.41538461538465" type="line"/>
      <point x="375.03229211295036" y="464.1846153846154" type="line" smooth="yes"/>
      <point x="375.03229211295036" y="578.9307692307692"/>
      <point x="468.7260720545278" y="769.9230769230769"/>
      <point x="582.1729620253166" y="844.2230769230769" type="qcurve" smooth="yes"/>
      <point x="687.7298967867575" y="899.4846153846154"/>
      <point x="778.3687984420643" y="968.5153846153846"/>
      <point x="778.3687984420643" y="1040.076923076923" type="qcurve" smooth="yes"/>
      <point x="778.3687984420643" y="1118.7615384615385"/>
      <point x="677.9986368062317" y="1183.846153846154"/>
      <point x="625.2217137293087" y="1183.846153846154" type="qcurve" smooth="yes"/>
      <point x="571.006329113924" y="1183.846153846154"/>
      <point x="480.1447906523856" y="1114.5615384615385"/>
      <point x="480.1447906523856" y="1041.253846153846" type="qcurve" smooth="yes"/>
      <point x="480.1447906523856" y="1001.2384615384615" type="line"/>
    </contour>
  </outline>
</glyph>
<glyph name="at" format="2">
  <advance width="2570"/>
  <unicode hex="0040"/>
  <outline>
    <contour>
      <point x="726.7258773125609" y="400.0" type="qcurve" smooth="yes"/>
      <point x="726.7258773125609" y="683.0769230769231"/>
      <point x="1090.6799927667269" y="1052.0"/>
      <point x="1326.5388666017525" y="1052.0" type="qcurve" smooth="yes"/>
      <point x="1406.4696358325218" y="1052.0"/>
      <point x="1541.3850204479063" y="987.2153846153846"/>
      <point x="1585.7004050632909" y="946.0" type="qcurve"/>
      <point x="1866.3749328140213" y="946.0" type="line"/>
      <point x="1758.3749328140213" y="350.0" type="line" smooth="yes"/>
      <point x="1748.248170800602" y="278.65225162482017"/>
      <point x="1792.5340840076553" y="220.2923076923077"/>
      <point x="1840.1441635832523" y="220.16923076923075" type="qcurve" smooth="yes"/>
      <point x="1944.2569039678674" y="220.04615384615383"/>
      <point x="2077.1441635832525" y="452.5615384615385"/>
      <point x="2077.1441635832525" y="643.723076923077" type="qcurve" smooth="yes"/>
      <point x="2077.1441635832525" y="874.5527952921395"/>
      <point x="1683.0826403094113" y="1217.3076923076924"/>
      <point x="1327.7696358325218" y="1217.3076923076924" type="qcurve" smooth="yes"/>
      <point x="977.2083865628043" y="1217.3076923076924"/>
      <point x="505.59510808179164" y="772.1841469761632"/>
      <point x="505.59510808179164" y="453.7230769230769" type="qcurve" smooth="yes"/>
      <point x="505.59510808179164" y="151.50747562296857"/>
      <point x="915.1034964529142" y="-175.0923076923077"/>
      <point x="1228.4850204479064" y="-175.0923076923077" type="qcurve" smooth="yes"/>
      <point x="1352.923481986368" y="-175.0923076923077"/>
      <point x="1526.7311742940603" y="-122.2"/>
      <point x="1585.4850204479064" y="-86.32307692307693" type="qcurve"/>
      <point x="1585.4850204479064" y="-357.2307692307692" type="line"/>
      <point x="1522.196581965516" y="-401.0369563423415"/>
      <point x="1352.923481986368" y="-446.0"/>
      <point x="1228.4850204479064" y="-446.0" type="qcurve" smooth="yes"/>
      <point x="768.9855540408959" y="-446.0"/>
      <point x="100.21538461538461" y="40.0"/>
      <point x="100.21538461538461" y="460.0" type="qcurve" smooth="yes"/>
      <point x="100.21538461538461" y="880.0"/>
      <point x="828.2086309639727" y="1486.0"/>
      <point x="1327.7696358325218" y="1486.0" type="qcurve" smooth="yes"/>
      <point x="1839.5800778967869" y="1486.0"/>
      <point x="2474.5952249269717" y="1000.0"/>
      <point x="2474.5952249269717" y="650.0" type="qcurve" smooth="yes"/>
      <point x="2474.5952249269717" y="360.0"/>
      <point x="2081.474659580043" y="0.0"/>
      <point x="1792.219859785784" y="0.0" type="qcurve" smooth="yes"/>
      <point x="1675.4070223953263" y="0.0"/>
      <point x="1507.0007010710808" y="98.63076923076923"/>
      <point x="1470.0170165530672" y="180.0" type="qcurve"/>
      <point x="1422.8573398247322" y="94.43846153846154"/>
      <point x="1252.904619279455" y="0.0"/>
      <point x="1159.946558909445" y="0.0" type="qcurve" smooth="yes"/>
      <point x="961.4415066735264" y="0.0"/>
      <point x="726.7258773125609" y="220.0"/>
    </contour>
    <contour>
      <point x="1086.6388666017526" y="403.32307692307694" type="qcurve" smooth="yes"/>
      <point x="1086.6388666017526" y="323.17692307692306"/>
      <point x="1154.9716209441845" y="244.35384615384615"/>
      <point x="1219.6311742940602" y="244.35384615384615" type="qcurve" smooth="yes"/>
      <point x="1289.605304771178" y="244.35384615384615"/>
      <point x="1407.1892346640702" y="332.03846153846155"/>
      <point x="1427.7449425511197" y="445.0" type="qcurve" smooth="yes"/>
      <point x="1476.6267147030185" y="770.1692307692308" type="line"/>
      <point x="1446.911330087634" y="790.9384615384616"/>
      <point x="1368.9420993184033" y="809.2153846153846"/>
      <point x="1329.7728685491725" y="809.2153846153846" type="qcurve" smooth="yes"/>
      <point x="1225.6440619981802" y="809.2153846153846"/>
      <point x="1086.6388666017526" y="576.0923076923076"/>
    </contour>
  </outline>
</glyph>
<glyph name="A" format="2">
  <advance width="1474"/>
  <unicode hex="0041"/>
  <anchor x="639.6295618305745" y="1432.0" name="top"/>
  <outline>
    <contour>
      <point x="-35.46153846153847" y="0.0" type="line"/>
      <point x="486.9402142161636" y="1460.3846153846152" type="line"/>
      <point x="993.9896981499513" y="1460.3846153846152" type="line"/>
      <point x="1524.0680817916264" y="0.0" type="line"/>
      <point x="1048.7836611489777" y="0.0" type="line"/>
      <point x="762.4104070107109" y="933.2307692307692" type="line" smooth="yes"/>
      <point x="744.7257916260954" y="980.3039922103213"/>
      <point x="718.5334839337878" y="1062.0923076923077"/>
      <point x="709.1488685491724" y="1099.6461538461538" type="qcurve"/>
      <point x="699.8873300876339" y="1099.6461538461538" type="line"/>
      <point x="690.5027147030186" y="1062.0923076923077"/>
      <point x="664.1873300876339" y="980.3384615384615"/>
      <point x="647.7488685491724" y="933.3538461538461" type="qcurve" smooth="yes"/>
      <point x="355.6593300876339" y="0.0" type="line"/>
    </contour>
    <contour>
      <point x="276.8664070107108" y="258.2153846153846" type="line"/>
      <point x="369.3236611489776" y="559.6615384615385" type="line"/>
      <point x="1078.7318909444984" y="559.6615384615385" type="line"/>
      <point x="1173.8540837390458" y="258.2153846153846" type="line"/>
    </contour>
  </outline>
</glyph>
<glyph name="B" format="2">
  <advance width="1550"/>
  <unicode hex="0042"/>
  <outline>
    <contour>
      <point x="140.0" y="0.0" type="line"/>
      <point x="140.0" y="1456.0" type="line"/>
      <point x="804.9568919182084" y="1456.0" type="line" smooth="yes"/>
      <point x="1100.6503102998695" y="1456.0"/>
      <point x="1426.5310301850047" y="1267.0461538461539"/>
      <point x="1426.5310301850047" y="1071.9692307692308" type="qcurve" smooth="yes"/>
      <point x="1426.5310301850047" y="951.6"/>
      <point x="1322.17583531356" y="793.4805460969906"/>
      <point x="1238.8079532619279" y="767.876923076923" type="qcurve"/>
      <point x="1238.8079532619279" y="763.876923076923" type="line"/>
      <point x="1343.3686593996797" y="738.1778645081783"/>
      <point x="1474.4694917234665" y="562.0923076923077"/>
      <point x="1474.4694917234665" y="419.26153846153846" type="qcurve" smooth="yes"/>
      <point x="1474.4694917234665" y="220.24615384615385"/>
      <point x="1125.975446445959" y="0.0"/>
      <point x="836.7415073028237" y="0.0" type="qcurve" smooth="yes"/>
    </contour>
    <contour>
      <point x="568.7261226874392" y="280.3076923076923" type="line"/>
      <point x="813.7261226874391" y="280.3076923076923" type="line" smooth="yes"/>
      <point x="931.7547699022933" y="280.3076923076923"/>
      <point x="1042.89535345667" y="371.8"/>
      <point x="1042.89535345667" y="452.6615384615385" type="qcurve" smooth="yes"/>
      <point x="1042.89535345667" y="531.4"/>
      <point x="931.7547699022933" y="623.8923076923077"/>
      <point x="813.7261226874391" y="623.8923076923077" type="qcurve" smooth="yes"/>
      <point x="568.7261226874392" y="623.8923076923077" type="line"/>
    </contour>
    <contour>
      <point x="568.7261226874392" y="882.3846153846154" type="line"/>
      <point x="782.9261226874393" y="882.3846153846154" type="line" smooth="yes"/>
      <point x="899.4498542750005" y="882.3846153846154"/>
      <point x="1000.7415073028237" y="957.4769230769231"/>
      <point x="1000.7415073028237" y="1027.0615384615385" type="qcurve" smooth="yes"/>
      <point x="1000.7415073028237" y="1095.646153846154"/>
      <point x="899.4498542750005" y="1172.9846153846154"/>
      <point x="782.9261226874393" y="1172.9846153846154" type="qcurve" smooth="yes"/>
      <point x="568.7261226874392" y="1172.9846153846154" type="line"/>
    </contour>
  </outline>
</glyph>
<glyph name="C" format="2">
  <advance width="1608"/>
  <unicode hex="0043"/>
  <anchor x="775.7993222979552" y="0" name="bottom"/>
  <outline>
    <contour>
      <point x="83.92307692307692" y="697.8615384615384" type="qcurve" smooth="yes"/>
      <point x="83.92307692307692" y="758.1384615384616" type="line" smooth="yes"/>
      <point x="83.92307692307692" y="1107.0461538461539"/>
      <point x="534.4654138266797" y="1484.6461538461538"/>
      <point x="864.7993222979552" y="1484.6461538461538" type="qcurve" smooth="yes"/>
      <point x="1192.2651396693607" y="1484.6461538461538"/>
      <point x="1582.6217215189874" y="1173.4692307692308"/>
      <point x="1583.8660136319377" y="942.9076923076923" type="qcurve" smooth="yes"/>
      <point x="1584.3044751703992" y="905.1846153846153" type="line"/>
      <point x="1147.4762453748783" y="905.1846153846153" type="line"/>
      <point x="1147.0377838364166" y="951.0307692307692" type="line" smooth="yes"/>
      <point x="1150.5343885640746" y="1036.8863109095696"/>
      <point x="997.4377838364168" y="1171.6"/>
      <point x="866.5223992210322" y="1171.6" type="qcurve" smooth="yes"/>
      <point x="725.8531684518013" y="1171.6"/>
      <point x="530.7377838364168" y="965.9783267827063"/>
      <point x="530.7377838364168" y="783.7384615384616" type="qcurve" smooth="yes"/>
      <point x="530.7377838364168" y="672.1384615384615" type="line" smooth="yes"/>
      <point x="530.7377838364168" y="489.0370578326783"/>
      <point x="725.7300915287244" y="282.9230769230769"/>
      <point x="866.5223992210322" y="282.9230769230769" type="qcurve" smooth="yes"/>
      <point x="997.8070146056475" y="282.9230769230769"/>
      <point x="1150.5343885640746" y="421.9752275519689"/>
      <point x="1147.0377838364166" y="508.8769230769231" type="qcurve" smooth="yes"/>
      <point x="1147.4762453748783" y="549.5846153846153" type="line"/>
      <point x="1584.3044751703992" y="549.5846153846153" type="line"/>
      <point x="1583.8660136319377" y="508.41538461538465" type="line" smooth="yes"/>
      <point x="1593.7447984420644" y="283.2692307692308"/>
      <point x="1192.2651396693607" y="-28.646153846153847"/>
      <point x="864.7993222979552" y="-28.646153846153847" type="qcurve" smooth="yes"/>
      <point x="533.973106134372" y="-28.646153846153847"/>
      <point x="83.92307692307692" y="349.81538461538463"/>
    </contour>
  </outline>
</glyph>
<glyph name="D" format="2">
  <advance width="1651"/>
  <unicode hex="0044"/>
  <outline>
    <contour>
      <point x="140.0" y="0.0" type="line"/>
      <point x="140.0" y="1456.0" type="line"/>
      <point x="749.4067692307691" y="1456.0" type="line" smooth="yes"/>
      <point x="1095.495213708643" y="1456.0"/>
      <point x="1567.144553067186" y="1079.353846153846"/>
      <point x="1567.144553067186" y="758.7538461538462" type="qcurve" smooth="yes"/>
      <point x="1567.144553067186" y="698.4769230769231" type="line" smooth="yes"/>
      <point x="1567.144553067186" y="378.0"/>
      <point x="1094.7567521701812" y="0.0"/>
      <point x="749.4067692307691" y="0.0" type="qcurve" smooth="yes"/>
    </contour>
    <contour>
      <point x="568.2836923076924" y="303.9076923076923" type="line"/>
      <point x="740.2990769230769" y="303.9076923076923" type="line" smooth="yes"/>
      <point x="907.878624131721" y="303.9076923076923"/>
      <point x="1125.3760000000002" y="504.40769230769234"/>
      <point x="1125.3760000000002" y="685.8" type="qcurve" smooth="yes"/>
      <point x="1125.3760000000002" y="769.7076923076924" type="line" smooth="yes"/>
      <point x="1125.3760000000002" y="951.5923076923077"/>
      <point x="908.2478549009519" y="1149.6307692307691"/>
      <point x="740.2990769230769" y="1149.6307692307691" type="qcurve" smooth="yes"/>
      <point x="568.2836923076924" y="1149.6307692307691" type="line"/>
    </contour>
  </outline>
</glyph>
<glyph name="E" format="2">
  <advance width="1390"/>
  <unicode hex="0045"/>
  <anchor x="698.6836923076922" y="1173.012658227848" name="top"/>
  <outline>
    <contour>
      <point x="140.0" y="0.0" type="line"/>
      <point x="140.0" y="1456.0" type="line"/>
      <point x="1316.9906056475172" y="1456.0" type="line"/>
      <point x="1316.9906056475172" y="1142.9846153846154" type="line"/>
      <point x="567.0529230769231" y="1142.9846153846154" type="line"/>
      <point x="567.0529230769231" y="899.8769230769232" type="line"/>
      <point x="1214.713682570594" y="899.8769230769232" type="line"/>
      <point x="1214.713682570594" y="595.4769230769231" type="line"/>
      <point x="567.0529230769231" y="595.4769230769231" type="line"/>
      <point x="567.0529230769231" y="310.5538461538461" type="line"/>
      <point x="1329.2213748782863" y="310.5538461538461" type="line"/>
      <point x="1329.2213748782863" y="0.0" type="line"/>
    </contour>
  </outline>
</glyph>
<glyph name="F" format="2">
  <advance width="1345"/>
  <unicode hex="0046"/>
  <outline>
    <contour>
      <point x="140.0" y="0.0" type="line"/>
      <point x="140.0" y="1456.0" type="line"/>
      <point x="1296.2521441090557" y="1456.0" type="line"/>
      <point x="1296.2521441090557" y="1143.107692307692" type="line"/>
      <point x="570.7452307692308" y="1143.107692307692" type="line"/>
      <point x="570.7452307692308" y="833.0615384615385" type="line"/>
      <point x="1215.5906056475171" y="833.0615384615385" type="line"/>
      <point x="1215.5906056475171" y="526.2" type="line"/>
      <point x="570.7452307692308" y="526.2" type="line"/>
      <point x="570.7452307692308" y="0.0" type="line"/>
    </contour>
  </outline>
</glyph>
<glyph name="G" format="2">
  <advance width="1630"/>
  <unicode hex="0047"/>
  <outline>
    <contour>
      <point x="83.8" y="697.8615384615384" type="qcurve" smooth="yes"/>
      <point x="83.8" y="758.1384615384616" type="line" smooth="yes"/>
      <point x="83.8" y="1103.8461538461538"/>
      <point x="536.8192599805259" y="1484.7692307692307"/>
      <point x="866.245476144109" y="1484.7692307692307" type="qcurve" smooth="yes"/>
      <point x="1194.0827108781048" y="1484.7692307692307"/>
      <point x="1563.1130983446933" y="1200.5615384615385"/>
      <point x="1567.7429367088607" y="1002.0615384615385" type="qcurve" smooth="yes"/>
      <point x="1568.1813982473222" y="985.0461538461539" type="line"/>
      <point x="1132.722399221032" y="985.0461538461539" type="line"/>
      <point x="1132.2839376825705" y="997.1384615384616" type="line" smooth="yes"/>
      <point x="1133.1119143135347" y="1064.553846153846"/>
      <point x="995.1916299902629" y="1173.0846153846155"/>
      <point x="863.168553067186" y="1173.0846153846155" type="qcurve" smooth="yes"/>
      <point x="724.6377838364168" y="1173.0846153846155"/>
      <point x="528.2762453748784" y="967.6486243683323"/>
      <point x="528.2762453748784" y="780.7846153846154" type="qcurve" smooth="yes"/>
      <point x="528.2762453748784" y="673.7384615384615" type="line" smooth="yes"/>
      <point x="528.2762453748784" y="488.8436833239753"/>
      <point x="730.1300915287244" y="280.0846153846154"/>
      <point x="894.8300915287244" y="280.0846153846154" type="qcurve" smooth="yes"/>
      <point x="973.759929892892" y="280.0846153846154"/>
      <point x="1087.5426835443038" y="303.0076923076923"/>
      <point x="1143.0571372930867" y="334.5615384615385" type="qcurve"/>
      <point x="1143.0571372930867" y="506.99999999999994" type="line"/>
      <point x="872.3223992210321" y="506.99999999999994" type="line"/>
      <point x="872.3223992210321" y="808.9384615384616" type="line"/>
      <point x="1569.2890905550146" y="809.1846153846154" type="line"/>
      <point x="1569.2890905550146" y="196.41538461538462" type="line"/>
      <point x="1475.4550754678671" y="111.737622639011"/>
      <point x="1139.6864038240242" y="-28.76923076923077"/>
      <point x="893.9685530671859" y="-28.76923076923077" type="qcurve" smooth="yes"/>
      <point x="534.3239143135346" y="-28.76923076923077"/>
      <point x="83.8" y="352.15384615384613"/>
    </contour>
  </outline>
</glyph>
<glyph name="H" format="2">
  <advance width="1717"/>
  <unicode hex="0048"/>
  <outline>
    <contour>
      <point x="140.0" y="0.0" type="line"/>
      <point x="140.0" y="1456.0" type="line"/>
      <point x="570.7452307692308" y="1456.0" type="line"/>
      <point x="570.7452307692308" y="908.2846153846154" type="line"/>
      <point x="1149.7144615384614" y="908.2846153846154" type="line"/>
      <point x="1149.7144615384614" y="1456.0" type="line"/>
      <point x="1579.4596923076924" y="1456.0" type="line"/>
      <point x="1579.4596923076924" y="0.0" type="line"/>
      <point x="1149.7144615384614" y="0.0" type="line"/>
      <point x="1149.7144615384614" y="592.2076923076922" type="line"/>
      <point x="570.7452307692308" y="592.2076923076922" type="line"/>
      <point x="570.7452307692308" y="0.0" type="line"/>
    </contour>
  </outline>
</glyph>
<glyph name="J" format="2">
  <advance width="1383"/>
  <unicode hex="004A"/>
  <outline>
    <contour>
      <point x="25.0" y="526.8461538461538" type="qcurve" smooth="yes"/>
      <point x="25.0" y="549.1538461538462" type="line"/>
      <point x="444.65292307692306" y="549.1538461538462" type="line"/>
      <point x="444.65292307692306" y="514.9076923076923" type="line" smooth="yes"/>
      <point x="444.65292307692306" y="385.9846153846154"/>
      <point x="534.3144615384615" y="278.7307692307692"/>
      <point x="630.4683076923077" y="278.7307692307692" type="qcurve" smooth="yes"/>
      <point x="727.4990769230768" y="278.7307692307692"/>
      <point x="817.4067692307692" y="429.0678469128079"/>
      <point x="817.4067692307692" y="568.1846153846154" type="qcurve" smooth="yes"/>
      <point x="817.4067692307692" y="1456.0" type="line"/>
      <point x="1247.2750769230768" y="1456.0" type="line"/>
      <point x="1247.2750769230768" y="580.3692307692307" type="line" smooth="yes"/>
      <point x="1247.2750769230768" y="297.62307692307695"/>
      <point x="922.8954547224927" y="-28.76923076923077"/>
      <point x="635.7606153846153" y="-28.76923076923077" type="qcurve" smooth="yes"/>
      <point x="351.22577604673813" y="-28.76923076923077"/>
      <point x="25.0" y="249.66923076923078"/>
    </contour>
  </outline>
</glyph>
<glyph name="K" format="2">
  <advance width="1519"/>
  <unicode hex="004B"/>
  <outline>
    <contour>
      <point x="140.0" y="0.0" type="line"/>
      <point x="140.0" y="1456.0" type="line"/>
      <point x="570.7452307692308" y="1456.0" type="line"/>
      <point x="570.7452307692308" y="930.2692307692307" type="line"/>
      <point x="1072.3883154819864" y="1456.0" type="line"/>
      <point x="1519.6030691333985" y="1456.0" type="line"/>
      <point x="570.7452307692308" y="452.276923076923" type="line"/>
      <point x="570.7452307692308" y="0.0" type="line"/>
    </contour>
    <contour>
      <point x="1029.9199922103212" y="0.0" type="line"/>
      <point x="563.4954391431354" y="659.1618305744888" type="line"/>
      <point x="854.0847672833496" y="961.957935735151" type="line"/>
      <point x="1573.8942862706913" y="0.0" type="line"/>
    </contour>
  </outline>
</glyph>
<glyph name="L" format="2">
  <advance width="1295"/>
  <unicode hex="004C"/>
  <outline>
    <contour>
      <point x="140.0" y="0.0" type="line"/>
      <point x="140.0" y="1456.0" type="line"/>
      <point x="570.7452307692308" y="1456.0" type="line"/>
      <point x="570.7452307692308" y="313.0153846153846" type="line"/>
      <point x="1272.822153846154" y="313.0153846153846" type="line"/>
      <point x="1272.822153846154" y="0.0" type="line"/>
    </contour>
  </outline>
</glyph>
<glyph name="M" format="2">
  <advance width="2018"/>
  <unicode hex="004D"/>
  <outline>
    <contour>
      <point x="140.0" y="0.0" type="line"/>
      <point x="140.0" y="1456.0" type="line"/>
      <point x="709.7092891918207" y="1456.0" type="line"/>
      <point x="967.4237390457643" y="690.1052580331061" type="line" smooth="yes"/>
      <point x="979.5274391431353" y="654.1052580331061"/>
      <point x="1001.3698928919181" y="580.7898734177215"/>
      <point x="1007.9314313534566" y="537.1591041869523" type="qcurve"/>
      <point x="1014.1237390457643" y="537.1591041869523" type="line"/>
      <point x="1021.6852775073027" y="580.7898734177215"/>
      <point x="1039.4391236611489" y="654.1052580331061"/>
      <point x="1051.6314313534565" y="690.1052580331061" type="qcurve" smooth="yes"/>
      <point x="1317.0698461538464" y="1456.0" type="line"/>
      <point x="1898.99964556962" y="1456.0" type="line"/>
      <point x="1898.99964556962" y="0.0" type="line"/>
      <point x="1468.4446153846154" y="0.0" type="line"/>
      <point x="1468.4446153846154" y="802.4122687439143" type="line" smooth="yes"/>
      <point x="1468.4446153846154" y="839.2891918208373"/>
      <point x="1472.829230769231" y="931.358422590068"/>
      <point x="1476.2676923076924" y="967.2353456669913" type="qcurve"/>
      <point x="1468.883076923077" y="967.2353456669913" type="line"/>
      <point x="1463.76" y="931.1122687439143"/>
      <point x="1443.8138461538463" y="839.4122687439143"/>
      <point x="1431.7446153846154" y="802.4122687439143" type="qcurve" smooth="yes"/>
      <point x="1141.9283076923077" y="0.0" type="line"/>
      <point x="789.6834664070108" y="0.0" type="line"/>
      <point x="505.29753846153847" y="802.0578383641674" type="line" smooth="yes"/>
      <point x="493.3169152872444" y="839.1464459591042"/>
      <point x="473.15907692307695" y="931.0039922103211"/>
      <point x="467.1590769230769" y="966.8809152872444" type="qcurve"/>
      <point x="459.9667692307692" y="966.8809152872444" type="line"/>
      <point x="462.8436923076923" y="931.0039922103211"/>
      <point x="467.4744615384615" y="838.9347614410905"/>
      <point x="467.4744615384615" y="802.0578383641674" type="qcurve" smooth="yes"/>
      <point x="467.4744615384615" y="0.0" type="line"/>
    </contour>
  </outline>
</glyph>
<glyph name="N" format="2">
  <advance width="1612"/>
  <unicode hex="004E"/>
  <anchor x="744.203435248296" y="1432.0" name="top"/>
  <outline>
    <contour>
      <point x="140.0" y="0.0" type="line"/>
      <point x="140.0" y="1456.0" type="line"/>
      <point x="624.9843505355404" y="1456.0" type="line"/>
      <point x="1089.6070379746834" y="664.6618305744889" type="line" smooth="yes"/>
      <point x="1105.6568919182082" y="634.2925998052581"/>
      <point x="1122.3565998052582" y="567.7772151898735"/>
      <point x="1129.9873690360273" y="532.215676728335" type="qcurve"/>
      <point x="1136.056599805258" y="532.215676728335" type="line"/>
      <point x="1134.179676728335" y="569.092599805258"/>
      <point x="1131.9722765335932" y="643.0925998052581"/>
      <point x="1131.9722765335932" y="680.9695228821812" type="qcurve" smooth="yes"/>
      <point x="1131.9722765335932" y="1456.0" type="line"/>
      <point x="1482.8203076923078" y="1456.0" type="line"/>
      <point x="1482.8203076923078" y="0.0" type="line"/>
      <point x="981.4782161635833" y="0.0" type="line"/>
      <point x="533.1984693281402" y="794.9117818889971" type="line" smooth="yes"/>
      <point x="515.9369308666018" y="825.1234664070107"/>
      <point x="497.4489074975657" y="889.8271665043817"/>
      <point x="489.8181382667965" y="925.3887049659202" type="qcurve"/>
      <point x="484.7489074975657" y="925.3887049659202" type="line"/>
      <point x="486.7489074975657" y="887.5117818889971"/>
      <point x="489.37967672833497" y="816.8348588120741"/>
      <point x="489.37967672833497" y="779.834858812074" type="qcurve" smooth="yes"/>
      <point x="489.37967672833497" y="0.0" type="line"/>
    </contour>
  </outline>
</glyph>
<glyph name="O" format="2">
  <advance width="1726"/>
  <unicode hex="004F"/>
  <anchor x="775.6762453748782" y="1432.0" name="top"/>
  <outline>
    <contour>
      <point x="83.8" y="697.8615384615384" type="qcurve" smooth="yes"/>
      <point x="83.8" y="758.1384615384616" type="line" smooth="yes"/>
      <point x="83.8" y="1105.2"/>
      <point x="516.4518909444985" y="1484.7692307692307"/>
      <point x="859.9223992210322" y="1484.7692307692307" type="qcurve" smooth="yes"/>
      <point x="1202.4260416557818" y="1484.7692307692307"/>
      <point x="1642.0447984420643" y="1105.2"/>
      <point x="1642.0447984420643" y="758.1384615384616" type="qcurve" smooth="yes"/>
      <point x="1642.0447984420643" y="697.8615384615384" type="line" smooth="yes"/>
      <point x="1642.0447984420643" y="350.8"/>
      <point x="1202.4260416557818" y="-28.76923076923077"/>
      <point x="859.9223992210322" y="-28.76923076923077" type="qcurve" smooth="yes"/>
      <point x="517.4518909444985" y="-28.76923076923077"/>
      <point x="83.8" y="350.8"/>
    </contour>
    <contour>
      <point x="528.6454761441091" y="672.0153846153846" type="line" smooth="yes"/>
      <point x="528.6454761441091" y="489.52936552498596"/>
      <point x="706.0608607594936" y="283.04615384615386"/>
      <point x="859.9223992210322" y="283.04615384615386" type="qcurve" smooth="yes"/>
      <point x="1014.7839376825706" y="283.04615384615386"/>
      <point x="1198.1993222979552" y="489.52936552498596"/>
      <point x="1198.1993222979552" y="672.0153846153846" type="qcurve" smooth="yes"/>
      <point x="1198.1993222979552" y="783.4923076923077" type="line" smooth="yes"/>
      <point x="1198.1993222979552" y="965.6090960134756"/>
      <point x="1014.7839376825706" y="1171.7230769230769"/>
      <point x="859.9223992210322" y="1171.7230769230769" type="qcurve" smooth="yes"/>
      <point x="706.0608607594936" y="1171.7230769230769"/>
      <point x="528.6454761441091" y="965.6090960134756"/>
      <point x="528.6454761441091" y="783.4923076923077" type="qcurve" smooth="yes"/>
    </contour>
  </outline>
</glyph>
<glyph name="P" format="2">
  <advance width="1513"/>
  <unicode hex="0050"/>
  <outline>
    <contour>
      <point x="140.0" y="0.0" type="line"/>
      <point x="140.0" y="1456.0" type="line"/>
      <point x="838.1759999999999" y="1456.0" type="line" smooth="yes"/>
      <point x="1139.8713214169345" y="1456.0"/>
      <point x="1466.8443076923077" y="1187.6846153846154"/>
      <point x="1466.8443076923077" y="953.4615384615385" type="qcurve" smooth="yes"/>
      <point x="1466.8443076923077" y="721.2384615384615"/>
      <point x="1141.1020906477036" y="449.2769230769231"/>
      <point x="836.5759999999999" y="449.2769230769231" type="qcurve" smooth="yes"/>
      <point x="570.7452307692308" y="449.2769230769231" type="line"/>
      <point x="570.7452307692308" y="0.0" type="line"/>
    </contour>
    <contour>
      <point x="570.7452307692308" y="751.8307692307692" type="line"/>
      <point x="815.652923076923" y="751.8307692307692" type="line" smooth="yes"/>
      <point x="927.8426666666667" y="751.8307692307692"/>
      <point x="1037.3452307692307" y="864.3615384615384"/>
      <point x="1037.3452307692307" y="951.6153846153846" type="qcurve" smooth="yes"/>
      <point x="1037.3452307692307" y="1039.3615384615384"/>
      <point x="927.8426666666666" y="1149.2615384615383"/>
      <point x="815.652923076923" y="1149.2615384615383" type="qcurve" smooth="yes"/>
      <point x="570.7452307692308" y="1149.2615384615383" type="line"/>
    </contour>
  </outline>
</glyph>
<glyph name="Q" format="2">
  <advance width="1726"/>
  <unicode hex="0051"/>
  <outline>
    <contour>
      <point x="83.8" y="697.8615384615384" type="qcurve" smooth="yes"/>
      <point x="83.8" y="758.1384615384616" type="line" smooth="yes"/>
      <point x="83.8" y="1105.2"/>
      <point x="517.4518909444985" y="1484.7692307692307"/>
      <point x="860.9223992210322" y="1484.7692307692307" type="qcurve" smooth="yes"/>
      <point x="1203.5159844206426" y="1484.7692307692307"/>
      <point x="1640.0447984420643" y="1105.2"/>
      <point x="1640.0447984420643" y="758.1384615384616" type="qcurve" smooth="yes"/>
      <point x="1640.0447984420643" y="697.8615384615384" type="line" smooth="yes"/>
      <point x="1640.0447984420643" y="350.8"/>
      <point x="1203.5159844206426" y="-28.76923076923077"/>
      <point x="860.9223992210322" y="-28.76923076923077" type="qcurve" smooth="yes"/>
      <point x="518.4518909444985" y="-28.76923076923077"/>
      <point x="83.8" y="350.8"/>
    </contour>
    <contour>
      <point x="528.6454761441091" y="672.0153846153846" type="line" smooth="yes"/>
      <point x="528.6454761441091" y="488.44615384615383"/>
      <point x="707.0608607594936" y="283.04615384615386"/>
      <point x="860.9223992210322" y="283.04615384615386" type="qcurve" smooth="yes"/>
      <point x="1015.7839376825706" y="283.04615384615386"/>
      <point x="1196.1993222979552" y="488.44615384615383"/>
      <point x="1196.1993222979552" y="672.0153846153846" type="qcurve" smooth="yes"/>
      <point x="1196.1993222979552" y="783.4923076923077" type="line" smooth="yes"/>
      <point x="1196.1993222979552" y="966.6923076923077"/>
      <point x="1015.7839376825706" y="1171.7230769230769"/>
      <point x="860.9223992210322" y="1171.7230769230769" type="qcurve" smooth="yes"/>
      <point x="707.0608607594936" y="1171.7230769230769"/>
      <point x="528.6454761441091" y="966.6923076923077"/>
      <point x="528.6454761441091" y="783.4923076923077" type="qcurve" smooth="yes"/>
    </contour>
    <contour>
      <point x="1326.3676728334956" y="-315.5076923076923" type="line"/>
      <point x="859.5261226874392" y="23.338461538461534" type="line"/>
      <point x="1146.2834040895812" y="290.4" type="line"/>
      <point x="1618.878800389484" y="-42.93846153846154" type="line"/>
    </contour>
  </outline>
</glyph>
<glyph name="R" format="2">
  <advance width="1517"/>
  <unicode hex="0052"/>
  <outline>
    <contour>
      <point x="140.0" y="0.0" type="line"/>
      <point x="140.0" y="1456.0" type="line"/>
      <point x="796.1349094449853" y="1456.0" type="line" smooth="yes"/>
      <point x="1105.1622442894313" y="1456.0"/>
      <point x="1459.1570632911391" y="1186.1846153846154"/>
      <point x="1459.1570632911391" y="961.9692307692308" type="qcurve" smooth="yes"/>
      <point x="1459.1570632911391" y="735.4"/>
      <point x="1101.624188803933" y="458.3692307692308"/>
      <point x="795.027217137293" y="458.3692307692308" type="qcurve" smooth="yes"/>
      <point x="570.7452307692308" y="458.3692307692308" type="line"/>
      <point x="570.7452307692308" y="0.0" type="line"/>
    </contour>
    <contour>
      <point x="570.7452307692308" y="758.8307692307692" type="line"/>
      <point x="775.0887555988314" y="758.8307692307692" type="line" smooth="yes"/>
      <point x="910.8685892786651" y="758.8307692307692"/>
      <point x="1028.5502940603699" y="874.2153846153847"/>
      <point x="1028.5502940603699" y="956.8" type="qcurve" smooth="yes"/>
      <point x="1028.5502940603699" y="1038.3846153846155"/>
      <point x="910.8685892786651" y="1150.4923076923078"/>
      <point x="775.0887555988314" y="1150.4923076923078" type="qcurve" smooth="yes"/>
      <point x="570.7452307692308" y="1150.4923076923078" type="line"/>
    </contour>
    <contour>
      <point x="1014.7157312560857" y="0.0" type="line"/>
      <point x="660.1772697176242" y="671.3846153846154" type="line"/>
      <point x="1134.9887439143135" y="671.3846153846154" type="line"/>
      <point x="1506.5579746835442" y="0.0" type="line"/>
    </contour>
  </outline>
</glyph>
<glyph name="S" format="2">
  <advance width="1491"/>
  <unicode hex="0053"/>
  <outline>
    <contour>
      <point x="58.43076923076923" y="430.79999999999995" type="qcurve" smooth="yes"/>
      <point x="58.43076923076923" y="471.03076923076924" type="line"/>
      <point x="500.92984615384614" y="471.03076923076924" type="line"/>
      <point x="500.92984615384614" y="438.4307692307692" type="line" smooth="yes"/>
      <point x="500.80676923076925" y="358.37692307692305"/>
      <point x="633.5529230769231" y="277.25384615384615"/>
      <point x="754.0913846153846" y="277.25384615384615" type="qcurve" smooth="yes"/>
      <point x="873.3990769230769" y="277.25384615384615"/>
      <point x="999.4064771178189" y="342.65384615384613"/>
      <point x="999.5836923076923" y="395.570593962999" type="qcurve" smooth="yes"/>
      <point x="1000.2039454722493" y="463.5703018500486"/>
      <point x="898.2188977604675" y="510.0405063291139"/>
      <point x="640.7246270691334" y="557.3020447906524" type="qcurve" smooth="yes"/>
      <point x="373.3688179162609" y="608.3943524829601"/>
      <point x="77.42493865628042" y="829.9502434274586"/>
      <point x="77.42493865628042" y="1032.838948393379" type="qcurve" smooth="yes"/>
      <point x="77.42493865628042" y="1230.4738072054529"/>
      <point x="444.16119961051606" y="1484.5230769230768"/>
      <point x="744.9836923076923" y="1484.5230769230768" type="qcurve" smooth="yes"/>
      <point x="1044.2618928919183" y="1484.5230769230768"/>
      <point x="1409.575076923077" y="1223.6076923076923"/>
      <point x="1409.575076923077" y="1032.430769230769" type="qcurve" smooth="yes"/>
      <point x="1409.575076923077" y="994.2923076923076" type="line"/>
      <point x="979.3067692307692" y="994.2923076923076" type="line"/>
      <point x="979.3067692307692" y="1025.4153846153845" type="line" smooth="yes"/>
      <point x="979.3067692307692" y="1093.7307692307693"/>
      <point x="862.3836923076923" y="1176.7769230769231"/>
      <point x="746.7067692307692" y="1176.7769230769231" type="qcurve" smooth="yes"/>
      <point x="631.7836923076923" y="1176.7769230769231"/>
      <point x="522.8606153846154" y="1121.5336903602727"/>
      <point x="522.8606153846154" y="1073.8132424537487" type="qcurve" smooth="yes"/>
      <point x="522.8606153846154" y="1010.4485881207399"/>
      <point x="613.92864654333" y="981.6492697176242"/>
      <point x="878.6863797468354" y="932.6190847127557" type="qcurve" smooth="yes"/>
      <point x="1144.0341811100293" y="882.2886075949367"/>
      <point x="1442.6846075949368" y="656.7235637779942"/>
      <point x="1442.6846075949368" y="439.0570593962999" type="qcurve" smooth="yes"/>
      <point x="1442.6846075949368" y="222.59941577409933"/>
      <point x="1061.722500486855" y="-28.76923076923077"/>
      <point x="755.3221538461538" y="-28.76923076923077" type="qcurve" smooth="yes"/>
      <point x="452.1343992210322" y="-28.76923076923077"/>
      <point x="58.43076923076923" y="215.85384615384615"/>
    </contour>
  </outline>
</glyph>
<glyph name="U" format="2">
  <advance width="1620"/>
  <unicode hex="0055"/>
  <anchor x="726.5107614410905" y="1432.0" name="top"/>
  <outline>
    <contour>
      <point x="119.86153846153844" y="627.6769230769231" type="qcurve" smooth="yes"/>
      <point x="119.86153846153844" y="1456.0" type="line"/>
      <point x="549.3606153846155" y="1456.0" type="line"/>
      <point x="549.3606153846155" y="615.123076923077" type="line" smooth="yes"/>
      <point x="547.3606153846155" y="445.9076923076923"/>
      <point x="695.9415306718596" y="283.4153846153846"/>
      <point x="817.2646075949366" y="283.4153846153846" type="qcurve" smooth="yes"/>
      <point x="935.7107614410905" y="283.4153846153846"/>
      <point x="1083.2030691333982" y="447.3461538461538"/>
      <point x="1083.2030691333982" y="615.123076923077" type="qcurve" smooth="yes"/>
      <point x="1083.2030691333982" y="1456.0" type="line"/>
      <point x="1499.0713768257058" y="1456.0" type="line"/>
      <point x="1499.0713768257058" y="627.6769230769231" type="line" smooth="yes"/>
      <point x="1502.0713768257058" y="299.43640941709674"/>
      <point x="1103.590512171373" y="-28.76923076923077"/>
      <point x="810.6184537487827" y="-28.76923076923077" type="qcurve" smooth="yes"/>
      <point x="516.5885569620252" y="-28.76923076923077"/>
      <point x="119.86153846153844" y="299.43640941709674"/>
    </contour>
  </outline>
</glyph>
<glyph name="V" format="2">
  <advance width="1419"/>
  <unicode hex="0056"/>
  <outline>
    <contour>
      <point x="-55.38461538461539" y="1456.0" type="line"/>
      <point x="421.82543719571566" y="1456.0" type="line"/>
      <point x="695.9506952288218" y="561.045959104187" type="line" smooth="yes"/>
      <point x="707.6506952288219" y="529.0690360272639"/>
      <point x="734.7199259980526" y="445.93826679649464"/>
      <point x="745.7199259980526" y="401.7844206426485" type="qcurve"/>
      <point x="749.6122336903602" y="401.7844206426485" type="line"/>
      <point x="756.6122336903603" y="443.0613437195716"/>
      <point x="780.5583875365141" y="530.4382667964946"/>
      <point x="791.2583875365141" y="561.045959104187" type="qcurve" smooth="yes"/>
      <point x="1076.2420915287244" y="1456.0" type="line"/>
      <point x="1474.658699123661" y="1456.0" type="line"/>
      <point x="966.9202375851996" y="0.5076923076923077" type="line"/>
      <point x="456.3538461538461" y="0.5076923076923077" type="line"/>
    </contour>
  </outline>
</glyph>
<glyph name="W" format="2">
  <advance width="2189"/>
  <unicode hex="0057"/>
  <outline>
    <contour>
      <point x="359.30955404089576" y="1.615384615384615" type="line"/>
      <point x="10.15384615384616" y="1456.0" type="line"/>
      <point x="440.43690749756576" y="1456.0" type="line"/>
      <point x="635.5522921129505" y="559.3076923076923" type="line" smooth="yes"/>
      <point x="642.9369074975658" y="523.7538461538461"/>
      <point x="655.9369074975657" y="444.5923076923077"/>
      <point x="657.3753690360273" y="408.61538461538464" type="qcurve"/>
      <point x="662.8830613437196" y="408.61538461538464" type="line"/>
      <point x="664.3215228821812" y="444.34615384615387"/>
      <point x="676.5676767283351" y="523.7538461538461"/>
      <point x="683.8292151898735" y="559.3076923076923" type="qcurve" smooth="yes"/>
      <point x="883.2159844206426" y="1456.0" type="line"/>
      <point x="1379.062535540409" y="1456.0" type="line"/>
      <point x="1597.3590535540409" y="562.2524829600778" type="line" smooth="yes"/>
      <point x="1605.4089074975657" y="527.1909444985395"/>
      <point x="1612.7436689386561" y="447.5370983446933"/>
      <point x="1614.3052074001946" y="411.5601752677702" type="qcurve"/>
      <point x="1619.8128997078868" y="411.5601752677702" type="line"/>
      <point x="1621.2513612463483" y="447.4140214216164"/>
      <point x="1629.1282843232716" y="526.6986368062318"/>
      <point x="1636.512899707887" y="562.2524829600778" type="qcurve" smooth="yes"/>
      <point x="1822.2744381694254" y="1456.0" type="line"/>
      <point x="2178.94582278481" y="1456.0" type="line"/>
      <point x="1824.612899707887" y="1.615384615384615" type="line"/>
      <point x="1327.5151080817914" y="1.615384615384615" type="line"/>
      <point x="1120.778753651412" y="905.7384615384616" type="line" smooth="yes"/>
      <point x="1112.5172151898735" y="941.0461538461537"/>
      <point x="1096.0787536514117" y="1042.0692307692307"/>
      <point x="1094.6402921129504" y="1077.046153846154" type="qcurve"/>
      <point x="1090.4479844206426" y="1077.046153846154" type="line"/>
      <point x="1088.009522882181" y="1042.0692307692307"/>
      <point x="1070.5710613437195" y="941.1692307692307"/>
      <point x="1063.309522882181" y="905.7384615384616" type="qcurve" smooth="yes"/>
      <point x="867.8344148003895" y="1.615384615384615" type="line"/>
    </contour>
  </outline>
</glyph>
<glyph name="X" format="2">
  <advance width="1424"/>
  <unicode hex="0058"/>
  <outline>
    <contour>
      <point x="-18.0" y="0.0" type="line"/>
      <point x="531.7076923076922" y="834.9692307692308" type="line"/>
      <point x="648.160759493671" y="834.9692307692308" type="line"/>
      <point x="1006.3530671859786" y="1456.0" type="line"/>
      <point x="1398.9676728334957" y="1456.0" type="line"/>
      <point x="897.4907497565727" y="654.6153846153846" type="line"/>
      <point x="781.5992210321324" y="654.6153846153846" type="line"/>
      <point x="392.6146056475171" y="0.0" type="line"/>
    </contour>
    <contour>
      <point x="5.369230769230768" y="1456.0" type="line"/>
      <point x="522.7676728334957" y="1456.0" type="line"/>
      <point x="895.4522882181111" y="843.9692307692308" type="line"/>
      <point x="893.9061343719573" y="843.9692307692308" type="line"/>
      <point x="1438.875365141188" y="0.0" type="line"/>
      <point x="910.9153846153846" y="0.0" type="line"/>
      <point x="523.0153846153846" y="636.0615384615385" type="line"/>
      <point x="525.876923076923" y="636.0615384615385" type="line"/>
    </contour>
  </outline>
</glyph>
<glyph name="Y" format="2">
  <advance width="1431"/>
  <unicode hex="0059"/>
  <anchor x="679.1186173320351" y="1432.0" name="top"/>
  <outline>
    <contour>
      <point x="501.99667380720547" y="0.0" type="line"/>
      <point x="501.99667380720547" y="483.76338851022393" type="line"/>
      <point x="-33.61538461538461" y="1456.0" type="line"/>
      <point x="459.6843972736125" y="1456.0" type="line"/>
      <point x="700.0997663096398" y="984.0" type="line" smooth="yes"/>
      <point x="714.449912366115" y="956.7575462512171"/>
      <point x="738.5689970788706" y="900.276923076923"/>
      <point x="748.5151509250245" y="872.2461538461538" type="qcurve"/>
      <point x="752.2689970788706" y="872.2461538461538" type="line"/>
      <point x="762.7766893865629" y="900.276923076923"/>
      <point x="785.1570204479066" y="956.0233690360272"/>
      <point x="799.8570204479065" y="984.1772151898734" type="qcurve" smooth="yes"/>
      <point x="1047.3573203505355" y="1456.0" type="line"/>
      <point x="1446.4489970788704" y="1456.0" type="line"/>
      <point x="932.9726738072053" y="517.3076923076923" type="line"/>
      <point x="932.9726738072053" y="0.0" type="line"/>
    </contour>
  </outline>
</glyph>
<glyph name="Z" format="2">
  <advance width="1336"/>
  <unicode hex="005A"/>
  <outline>
    <contour>
      <point x="33.04615384615384" y="0.0" type="line"/>
      <point x="33.04615384615384" y="257.75384615384615" type="line"/>
      <point x="678.7570009737099" y="1142.9846153846154" type="line"/>
      <point x="48.4" y="1142.9846153846154" type="line"/>
      <point x="48.4" y="1456.0" type="line"/>
      <point x="1271.5362181110029" y="1456.0" type="line"/>
      <point x="1271.5362181110029" y="1195.7846153846156" type="line"/>
      <point x="626.4358870496593" y="310.5538461538461" type="line"/>
      <point x="1309.013141187926" y="310.5538461538461" type="line"/>
      <point x="1309.013141187926" y="0.0" type="line"/>
    </contour>
  </outline>
</glyph>
<glyph name="bracketleft" format="2">
  <advance width="740"/>
  <unicode hex="005B"/>
  <outline>
    <contour>
      <point x="135.3846153846154" y="-310.0" type="line"/>
      <point x="135.3846153846154" y="1456.0" type="line"/>
      <point x="774.3095618305745" y="1456.0" type="line"/>
      <point x="774.3095618305745" y="1163.230769230769" type="line"/>
      <point x="545.7941772151898" y="1163.230769230769" type="line"/>
      <point x="545.7941772151898" y="-17.230769230769226" type="line"/>
      <point x="774.3095618305745" y="-17.230769230769226" type="line"/>
      <point x="774.3095618305745" y="-310.0" type="line"/>
    </contour>
  </outline>
</glyph>
<glyph name="backslash" format="2">
  <advance width="723"/>
  <unicode hex="005C"/>
  <outline>
    <contour>
      <point x="-115.15384615384616" y="1456.0" type="line"/>
      <point x="228.3530671859786" y="1456.0" type="line"/>
      <point x="836.3530671859786" y="-125.0" type="line"/>
      <point x="492.4076923076923" y="-125.0" type="line"/>
    </contour>
  </outline>
</glyph>
<glyph name="bracketright" format="2">
  <advance width="740"/>
  <unicode hex="005D"/>
  <outline>
    <contour>
      <point x="604.4407205452776" y="-310.0" type="line"/>
      <point x="-35.484225900681594" y="-310.0" type="line"/>
      <point x="-35.484225900681594" y="-17.230769230769226" type="line"/>
      <point x="193.03115871470303" y="-17.230769230769226" type="line"/>
      <point x="193.03115871470303" y="1163.230769230769" type="line"/>
      <point x="-35.484225900681594" y="1163.230769230769" type="line"/>
      <point x="-35.484225900681594" y="1456.0" type="line"/>
      <point x="604.4407205452776" y="1456.0" type="line"/>
    </contour>
  </outline>
</glyph>
<glyph name="underscore" format="2">
  <advance width="848"/>
  <unicode hex="005F"/>
  <outline>
    <contour>
      <point x="0.0" y="-225.90769230769234" type="line"/>
      <point x="0.0" y="54.61538461538461" type="line"/>
      <point x="847.6307692307691" y="54.61538461538461" type="line"/>
      <point x="847.6307692307691" y="-225.90769230769234" type="line"/>
    </contour>
  </outline>
</glyph>
<glyph name="grave" format="2">
  <advance width="1024"/>
  <unicode hex="0060"/>
  <anchor x="498.11538461538464" y="1035.0153846153846" name="_top"/>
  <outline>
    <contour>
      <point x="569.5230769230768" y="1155.3692307692306" type="line"/>
      <point x="155.66153846153844" y="1490.9692307692308" type="line"/>
      <point x="431.6615384615385" y="1684.1692307692308" type="line"/>
      <point x="769.6153846153846" y="1311.3846153846155" type="line"/>
    </contour>
  </outline>
</glyph>
<glyph name="a" format="2">
  <advance width="1464"/>
  <unicode hex="0061"/>
  <anchor x="635.580800389484" y="1058.4116923076924" name="top"/>
  <outline>
    <contour>
      <point x="63.92307692307692" y="310.7584615384615" type="qcurve" smooth="yes"/>
      <point x="63.92307692307692" y="486.10154000773093"/>
      <point x="425.44209152872446" y="683.3938461538461"/>
      <point x="682.4951080817916" y="683.3938461538461" type="qcurve" smooth="yes"/>
      <point x="907.9874157740993" y="683.3938461538461" type="line"/>
      <point x="907.9874157740993" y="728.380923076923" type="line" smooth="yes"/>
      <point x="907.9874157740993" y="772.4039999999999"/>
      <point x="817.5224372743381" y="827.457846153846"/>
      <point x="722.8104926971762" y="827.457846153846" type="qcurve" smooth="yes"/>
      <point x="635.9395836062671" y="827.457846153846"/>
      <point x="533.3181850048685" y="782.5492820512821"/>
      <point x="533.3181850048685" y="744.4978461538462" type="qcurve" smooth="yes"/>
      <point x="533.3181850048685" y="717.8978461538462" type="line"/>
      <point x="123.13939240506328" y="718.267076923077" type="line"/>
      <point x="123.13939240506328" y="744.2516923076923" type="line" smooth="yes"/>
      <point x="123.13939240506328" y="893.4228520710059"/>
      <point x="475.3381226874391" y="1088.1655384615385"/>
      <point x="742.9104926971762" y="1088.1655384615385" type="qcurve" smooth="yes"/>
      <point x="1013.3656163583253" y="1088.1655384615385"/>
      <point x="1326.0594469328141" y="906.2886153846154"/>
      <point x="1326.0594469328141" y="724.8116923076922" type="qcurve" smooth="yes"/>
      <point x="1326.0594469328141" y="232.86153846153846" type="line" smooth="yes"/>
      <point x="1326.0594469328141" y="169.7076923076923"/>
      <point x="1355.9902161635832" y="53.15384615384615"/>
      <point x="1380.2902161635832" y="15.507692307692308" type="qcurve"/>
      <point x="1380.2902161635832" y="0.0" type="line"/>
      <point x="968.1643388510224" y="0.0" type="line"/>
      <point x="956.5913834666832" y="20.63744301158873"/>
      <point x="936.8088975211916" y="90.71152542338471"/>
      <point x="933.2874157740993" y="122.32615384615384" type="qcurve"/>
      <point x="901.7952968257152" y="66.30613130010921"/>
      <point x="668.7052619840275" y="-19.138461538461538"/>
      <point x="529.8201908471276" y="-19.138461538461538" type="qcurve" smooth="yes"/>
      <point x="348.5438696820098" y="-19.138461538461538"/>
      <point x="63.92307692307692" y="150.40937062937064"/>
    </contour>
    <contour>
      <point x="482.76433885102244" y="324.18923076923073" type="qcurve" smooth="yes"/>
      <point x="482.76433885102244" y="284.0154326923077"/>
      <point x="567.6296878850476" y="239.58461538461538"/>
      <point x="642.7368023369036" y="239.58461538461538" type="qcurve" smooth="yes"/>
      <point x="735.0992474228689" y="239.58461538461538"/>
      <point x="907.9874157740993" y="314.95111976630966"/>
      <point x="907.9874157740993" y="375.6030769230769" type="qcurve"/>
      <point x="907.9874157740993" y="450.56307692307695" type="line"/>
      <point x="724.3181850048686" y="450.56307692307695" type="line" smooth="yes"/>
      <point x="619.6948883015717" y="450.56307692307695"/>
      <point x="482.76433885102244" y="381.9855795231554"/>
    </contour>
  </outline>
</glyph>
<glyph name="b" format="2">
  <advance width="1497"/>
  <unicode hex="0062"/>
  <outline>
    <contour>
      <point x="112.00000000000001" y="0.0" type="line"/>
      <point x="112.00000000000001" y="1526.4" type="line"/>
      <point x="528.702800389484" y="1526.4" type="line"/>
      <point x="528.702800389484" y="951.4116923076923" type="line"/>
      <point x="574.9230330978654" y="1014.7916392792886"/>
      <point x="785.592883572124" y="1079.6424615384617"/>
      <point x="903.0886426484907" y="1079.6424615384617" type="qcurve" smooth="yes"/>
      <point x="1138.41330297356" y="1079.6424615384617"/>
      <point x="1435.7230925024342" y="777.881592760181"/>
      <point x="1435.7230925024342" y="546.5596923076923" type="qcurve" smooth="yes"/>
      <point x="1435.7230925024342" y="514.5596923076923" type="line" smooth="yes"/>
      <point x="1435.7230925024342" y="283.175442670537"/>
      <point x="1137.1825337427908" y="-20.0"/>
      <point x="901.8578734177215" y="-20.0" type="qcurve" smooth="yes"/>
      <point x="783.412901392142" y="-20.0"/>
      <point x="563.5152643500345" y="53.46260611905703"/>
      <point x="525.1412619279455" y="115.44615384615385" type="qcurve"/>
      <point x="523.1951080817917" y="115.44615384615385" type="line"/>
      <point x="517.0566465433301" y="0.0" type="line"/>
    </contour>
    <contour>
      <point x="528.702800389484" y="420.53846153846155" type="line"/>
      <point x="554.4034318381929" y="365.0565987647702"/>
      <point x="698.9744926971763" y="282.95384615384614"/>
      <point x="775.3104926971762" y="282.95384615384614" type="qcurve" smooth="yes"/>
      <point x="890.8766823215054" y="282.95384615384614"/>
      <point x="1007.8258773125609" y="415.9311697191697"/>
      <point x="1007.8258773125609" y="515.052" type="qcurve" smooth="yes"/>
      <point x="1007.8258773125609" y="544.2212307692307" type="line" smooth="yes"/>
      <point x="1007.8258773125609" y="643.3241656804734"/>
      <point x="890.8766823215054" y="775.4578461538462"/>
      <point x="775.0643388510224" y="775.4578461538462" type="qcurve" smooth="yes"/>
      <point x="698.9744926971763" y="775.4578461538462"/>
      <point x="554.4034318381929" y="693.3550935429221"/>
      <point x="528.702800389484" y="637.8732307692308" type="qcurve"/>
    </contour>
  </outline>
</glyph>
<glyph name="c" format="2">
  <advance width="1368"/>
  <unicode hex="0063"/>
  <anchor x="640.1239844206426" y="0" name="bottom"/>
  <outline>
    <contour>
      <point x="60.76923076923077" y="513.6981538461539" type="qcurve" smooth="yes"/>
      <point x="60.76923076923077" y="545.9443076923078" type="line" smooth="yes"/>
      <point x="60.76923076923077" y="796.9847002814258"/>
      <point x="441.4516455696202" y="1089.3963076923078"/>
      <point x="743.7895228821811" y="1089.3963076923078" type="qcurve" smooth="yes"/>
      <point x="1035.9544459591043" y="1089.3963076923078"/>
      <point x="1347.8405842259008" y="845.6988384019082"/>
      <point x="1360.4405842259007" y="680.5778461538462" type="qcurve" smooth="yes"/>
      <point x="1362.6867380720546" y="649.624" type="line"/>
      <point x="955.1433690360273" y="649.624" type="line"/>
      <point x="954.1433690360273" y="671.2393846153847" type="line" smooth="yes"/>
      <point x="951.1433690360273" y="723.4699799331103"/>
      <point x="843.2250840423325" y="794.8732307692308"/>
      <point x="746.6202921129504" y="794.8732307692308" type="qcurve" smooth="yes"/>
      <point x="631.1905766229609" y="794.8732307692308"/>
      <point x="487.65106134371956" y="662.597696914769"/>
      <point x="487.65106134371956" y="548.652" type="qcurve" smooth="yes"/>
      <point x="487.65106134371956" y="511.23661538461545" type="line" smooth="yes"/>
      <point x="487.65106134371956" y="396.3541435368756"/>
      <point x="631.0674996998839" y="263.4153846153846"/>
      <point x="746.6202921129503" y="263.4153846153846" type="qcurve" smooth="yes"/>
      <point x="843.3481609654094" y="263.4153846153846"/>
      <point x="954.2664459591042" y="339.5724816053512"/>
      <point x="954.2664459591042" y="390.6953846153846" type="qcurve" smooth="yes"/>
      <point x="954.2664459591042" y="407.68" type="line"/>
      <point x="1360.6867380720546" y="407.68" type="line"/>
      <point x="1360.5636611489776" y="388.48" type="line" smooth="yes"/>
      <point x="1359.7021226874392" y="224.3436231365534"/>
      <point x="1036.8159844206425" y="-29.630769230769232"/>
      <point x="744.4049074975658" y="-29.630769230769232" type="qcurve" smooth="yes"/>
      <point x="442.19010710808175" y="-29.630769230769232"/>
      <point x="60.76923076923077" y="262.8807623931624"/>
    </contour>
  </outline>
</glyph>
<glyph name="d" format="2">
  <advance width="1497"/>
  <unicode hex="0064"/>
  <outline>
    <contour>
      <point x="60.76923076923077" y="513.3289230769232" type="qcurve" smooth="yes"/>
      <point x="60.76923076923077" y="545.3289230769232" type="line" smooth="yes"/>
      <point x="60.76923076923077" y="776.6508235294117"/>
      <point x="377.1856475170399" y="1078.4116923076924"/>
      <point x="623.6652190847127" y="1078.4116923076924" type="qcurve" smooth="yes"/>
      <point x="744.3291100292113" y="1078.4116923076924"/>
      <point x="924.1067692307691" y="1007.4116923076923"/>
      <point x="969.7587536514119" y="952.0270769230768" type="qcurve"/>
      <point x="969.7587536514119" y="1526.4" type="line"/>
      <point x="1385.615400194742" y="1526.4" type="line"/>
      <point x="1385.615400194742" y="0.0" type="line"/>
      <point x="981.2818305744888" y="0.0" type="line"/>
      <point x="974.1433690360273" y="121.35384615384615" type="line"/>
      <point x="972.1972151898734" y="121.35384615384615" type="line"/>
      <point x="933.6673768257059" y="58.10769230769231"/>
      <point x="746.2060331061343" y="-20.0"/>
      <point x="625.6652190847127" y="-20.0" type="qcurve" smooth="yes"/>
      <point x="357.5702629016553" y="-20.0"/>
      <point x="60.76923076923077" y="281.94467343976777"/>
    </contour>
    <contour>
      <point x="486.6664459591042" y="514.4366153846155" type="line" smooth="yes"/>
      <point x="486.6664459591042" y="415.3157851037851"/>
      <point x="629.6972151898733" y="282.83076923076925"/>
      <point x="743.5510613437195" y="282.83076923076925" type="qcurve" smooth="yes"/>
      <point x="819.535676728335" y="282.83076923076925"/>
      <point x="941.2510613437196" y="365.2692307692308"/>
      <point x="967.9125998052581" y="420.53846153846155" type="qcurve"/>
      <point x="967.9125998052581" y="637.8732307692306" type="line"/>
      <point x="941.2510613437196" y="710.1424615384615"/>
      <point x="829.535676728335" y="775.5809230769231"/>
      <point x="743.5510613437195" y="775.5809230769231" type="qcurve" smooth="yes"/>
      <point x="629.6972151898734" y="775.5809230769231"/>
      <point x="486.6664459591042" y="642.8318579881657"/>
      <point x="486.6664459591042" y="543.7289230769231" type="qcurve" smooth="yes"/>
    </contour>
  </outline>
</glyph>
<glyph name="e" format="2">
  <advance width="1398"/>
  <unicode hex="0065"/>
  <anchor x="625.4152930866602" y="1059.086923076923" name="top"/>
  <outline>
    <contour>
      <point x="60.76923076923077" y="513.9443076923078" type="qcurve" smooth="yes"/>
      <point x="60.76923076923077" y="545.9443076923078" type="line" smooth="yes"/>
      <point x="60.76923076923077" y="786.8616233583489"/>
      <point x="441.26119961051603" y="1089.150153846154"/>
      <point x="727.2142161635833" y="1089.150153846154" type="qcurve" smooth="yes"/>
      <point x="1016.3779629990263" y="1089.150153846154"/>
      <point x="1356.3207400194742" y="804.2154965034965"/>
      <point x="1356.3207400194742" y="562.7135384615385" type="qcurve" smooth="yes"/>
      <point x="1356.3207400194742" y="423.25199999999995" type="line"/>
      <point x="350.7603700097371" y="423.25199999999995" type="line"/>
      <point x="350.7603700097371" y="660.3443076923077" type="line"/>
      <point x="948.0293086660175" y="660.3443076923077" type="line"/>
      <point x="945.9407010710808" y="579.2946484907499" type="line"/>
      <point x="948.0293086660175" y="685.2362830249918"/>
      <point x="855.1095228821812" y="808.4732307692308"/>
      <point x="709.6438169425511" y="808.4732307692308" type="qcurve" smooth="yes"/>
      <point x="606.9010189342723" y="808.4732307692308"/>
      <point x="468.9603700097371" y="658.8681172161172"/>
      <point x="468.9603700097371" y="547.7904615384616" type="qcurve" smooth="yes"/>
      <point x="468.9603700097371" y="513.4520000000001" type="line" smooth="yes"/>
      <point x="468.9603700097371" y="401.56064631245044"/>
      <point x="625.213522865465" y="261.4153846153846"/>
      <point x="750.5065238558909" y="261.4153846153846" type="qcurve" smooth="yes"/>
      <point x="835.3846950650201" y="261.4153846153846"/>
      <point x="977.5734527750731" y="343.03076923076924"/>
      <point x="1019.741752677702" y="392.723076923077" type="qcurve"/>
      <point x="1321.6871275559881" y="205.56923076923078" type="line"/>
      <point x="1264.2071665043816" y="90.15384615384615"/>
      <point x="952.8886426484908" y="-30.630769230769232"/>
      <point x="750.8757546251218" y="-30.630769230769232" type="qcurve" smooth="yes"/>
      <point x="436.0812385589095" y="-30.630769230769232"/>
      <point x="60.76923076923077" y="272.3884547008547"/>
    </contour>
  </outline>
</glyph>
<glyph name="f" format="2">
  <advance width="794"/>
  <unicode hex="0066"/>
  <outline>
    <contour>
      <point x="178.93846153846155" y="0.0" type="line"/>
      <point x="178.93846153846155" y="1055.846153846154" type="line" smooth="yes"/>
      <point x="178.93846153846155" y="1294.7461538461537"/>
      <point x="477.60729473676383" y="1546.4"/>
      <point x="733.3643388510224" y="1546.4" type="qcurve" smooth="yes"/>
      <point x="765.4951080817916" y="1546.4"/>
      <point x="829.7489542356377" y="1538.0307692307692"/>
      <point x="860.9489542356379" y="1529.9076923076923" type="qcurve"/>
      <point x="851.5258773125609" y="1240.4153846153847" type="line"/>
      <point x="831.6489542356378" y="1244.1692307692308"/>
      <point x="786.1951080817915" y="1250.0461538461539"/>
      <point x="760.0874157740993" y="1250.0461538461539" type="qcurve" smooth="yes"/>
      <point x="683.1383288897606" y="1250.0461538461539"/>
      <point x="592.7951080817917" y="1147.476923076923"/>
      <point x="592.7951080817917" y="1042.923076923077" type="qcurve" smooth="yes"/>
      <point x="592.7951080817917" y="935.6963076923076" type="line"/>
      <point x="594.0258773125609" y="915.2963076923077" type="line"/>
      <point x="594.0258773125609" y="0.0" type="line"/>
    </contour>
    <contour>
      <point x="22.415384615384614" y="760.6578461538461" type="line"/>
      <point x="22.415384615384614" y="1058.4116923076924" type="line"/>
      <point x="334.02832327166504" y="1058.4116923076924" type="line"/>
      <point x="375.3206309639727" y="1058.4116923076924" type="line"/>
      <point x="800.579723466407" y="1058.4116923076924" type="line"/>
      <point x="800.579723466407" y="760.6578461538461" type="line"/>
    </contour>
  </outline>
</glyph>
<glyph name="g" format="2">
  <advance width="1497"/>
  <unicode hex="0067"/>
  <outline>
    <contour>
      <point x="160.37814995131453" y="-295.32307692307694" type="qcurve"/>
      <point x="253.15228042843233" y="-22.307692307692307" type="line"/>
      <point x="320.18751231871374" y="-72.47071413405538"/>
      <point x="553.5985134696527" y="-150.24615384615385"/>
      <point x="682.5941772151899" y="-150.24615384615385" type="qcurve" smooth="yes"/>
      <point x="796.3583263009846" y="-150.24615384615385"/>
      <point x="969.0202921129504" y="-18.85384615384615"/>
      <point x="969.0202921129504" y="105.3076923076923" type="qcurve" smooth="yes"/>
      <point x="969.0202921129504" y="109.33846153846153" type="line"/>
      <point x="923.1221538461538" y="46.215384615384615"/>
      <point x="736.7906484907497" y="-19.015384615384615"/>
      <point x="612.9267575462512" y="-19.015384615384615" type="qcurve" smooth="yes"/>
      <point x="367.55487828627065" y="-19.015384615384615"/>
      <point x="60.76923076923077" y="281.94467343976777"/>
      <point x="60.76923076923077" y="513.3289230769232" type="qcurve" smooth="yes"/>
      <point x="60.76923076923077" y="545.3289230769232" type="line" smooth="yes"/>
      <point x="60.76923076923077" y="776.6508235294117"/>
      <point x="366.0933398247322" y="1078.4116923076924"/>
      <point x="612.8190652385589" y="1078.4116923076924" type="qcurve" smooth="yes"/>
      <point x="731.8829561830574" y="1078.4116923076924"/>
      <point x="931.0827614410905" y="1001.5347692307691"/>
      <point x="969.4895228821812" y="938.4116923076922" type="qcurve"/>
      <point x="971.8049074975658" y="938.4116923076922" type="line"/>
      <point x="978.9433690360273" y="1058.4116923076924" type="line"/>
      <point x="1385.492323271665" y="1058.4116923076924" type="line"/>
      <point x="1385.492323271665" y="121.3076923076923" type="line" smooth="yes"/>
      <point x="1385.492323271665" y="-148.9"/>
      <point x="995.7339162609542" y="-438.46153846153845"/>
      <point x="709.5664459591042" y="-438.46153846153845" type="qcurve" smooth="yes"/>
      <point x="537.1882960077896" y="-438.46153846153845"/>
      <point x="248.64204089581304" y="-354.8923076923077"/>
    </contour>
    <contour>
      <point x="486.6664459591042" y="514.4366153846155" type="line" smooth="yes"/>
      <point x="486.6664459591042" y="415.3157851037851"/>
      <point x="619.6972151898734" y="282.83076923076925"/>
      <point x="742.5510613437195" y="282.83076923076925" type="qcurve" smooth="yes"/>
      <point x="819.535676728335" y="282.83076923076925"/>
      <point x="942.2510613437196" y="365.2692307692308"/>
      <point x="967.9125998052581" y="420.53846153846155" type="qcurve"/>
      <point x="967.9125998052581" y="637.8732307692308" type="line"/>
      <point x="941.2510613437196" y="708.1424615384615"/>
      <point x="819.535676728335" y="775.5809230769231"/>
      <point x="743.5510613437195" y="775.5809230769231" type="qcurve" smooth="yes"/>
      <point x="619.6972151898734" y="775.5809230769231"/>
      <point x="486.6664459591042" y="642.8318579881657"/>
      <point x="486.6664459591042" y="543.7289230769231" type="qcurve" smooth="yes"/>
    </contour>
  </outline>
</glyph>
<glyph name="h" format="2">
  <advance width="1456"/>
  <unicode hex="0068"/>
  <outline>
    <contour>
      <point x="112.00000000000001" y="0.0" type="line"/>
      <point x="112.00000000000001" y="1526.1538461538462" type="line"/>
      <point x="528.8258773125609" y="1526.1538461538462" type="line"/>
      <point x="528.9489542356378" y="918.4116923076923" type="line"/>
      <point x="581.9624771178189" y="1007.5501538461539"/>
      <point x="766.8459668938656" y="1079.5193846153848"/>
      <point x="874.5347964946445" y="1079.5193846153848" type="qcurve" smooth="yes"/>
      <point x="1111.101776046738" y="1079.5193846153848"/>
      <point x="1343.8209853943526" y="858.4424615384615"/>
      <point x="1343.8209853943526" y="575.580923076923" type="qcurve" smooth="yes"/>
      <point x="1343.8209853943526" y="0.0" type="line"/>
      <point x="925.7489542356378" y="0.0" type="line"/>
      <point x="925.7489542356378" y="562.5655384615384" type="line" smooth="yes"/>
      <point x="925.7489542356378" y="686.1193846153845"/>
      <point x="844.3104926971762" y="773.6424615384615"/>
      <point x="763.0643388510224" y="773.6424615384615" type="qcurve" smooth="yes"/>
      <point x="685.1489542356378" y="773.6424615384615"/>
      <point x="564.679723466407" y="674.7116923076923"/>
      <point x="529.0720311587147" y="618.180923076923" type="qcurve"/>
      <point x="529.0720311587147" y="0.0" type="line"/>
    </contour>
  </outline>
</glyph>
<glyph name="i" format="2">
  <advance width="638"/>
  <unicode hex="0069"/>
  <outline>
    <contour>
      <point x="109.89230769230768" y="0.0" type="line"/>
      <point x="109.89230769230768" y="1058.4116923076924" type="line"/>
      <point x="528.5643388510224" y="1058.4116923076924" type="line"/>
      <point x="528.5643388510224" y="0.0" type="line"/>
    </contour>
    <contour>
      <point x="85.77429406037002" y="1322.0307692307692" type="qcurve" smooth="yes"/>
      <point x="85.77429406037002" y="1409.3920155793573"/>
      <point x="206.68862338482592" y="1528.1261927945473"/>
      <point x="319.0535540408958" y="1528.1261927945473" type="qcurve" smooth="yes"/>
      <point x="431.29540777388877" y="1528.1261927945473"/>
      <point x="551.717429406037" y="1408.8843232716652"/>
      <point x="551.717429406037" y="1322.0307692307692" type="qcurve" smooth="yes"/>
      <point x="551.717429406037" y="1232.7925998052579"/>
      <point x="430.6800231585042" y="1114.4430379746836"/>
      <point x="319.4381694255112" y="1114.4430379746836" type="qcurve" smooth="yes"/>
      <point x="207.19631569251823" y="1114.4430379746836"/>
      <point x="85.77429406037002" y="1232.7925998052579"/>
    </contour>
  </outline>
</glyph>
<glyph name="j" format="2">
  <advance width="644"/>
  <unicode hex="006A"/>
  <outline>
    <contour>
      <point x="-131.9923076923077" y="-411.10769230769233" type="qcurve"/>
      <point x="-133.5923076923077" y="-121.49230769230769" type="line"/>
      <point x="-116.66153846153847" y="-127.12307692307692"/>
      <point x="-16.60769230769231" y="-141.24615384615385"/>
      <point x="11.93076923076923" y="-141.24615384615385" type="qcurve" smooth="yes"/>
      <point x="53.67692307692309" y="-141.24615384615385"/>
      <point x="126.79999999999998" y="-71.24615384615385"/>
      <point x="126.79999999999998" y="13.430769230769215" type="qcurve" smooth="yes"/>
      <point x="126.79999999999998" y="1058.4116923076924" type="line"/>
      <point x="544.85664654333" y="1058.4116923076924" type="line"/>
      <point x="544.85664654333" y="-41.90769230769231" type="line" smooth="yes"/>
      <point x="544.85664654333" y="-231.63076923076923"/>
      <point x="286.1485444474595" y="-436.4923076923077"/>
      <point x="62.68907497565725" y="-436.4923076923077" type="qcurve" smooth="yes"/>
      <point x="20.606748996603883" y="-436.4923076923077"/>
      <point x="-108.59684624476043" y="-420.29025299218944"/>
    </contour>
    <contour>
      <point x="102.43583252190848" y="1322.0307692307692" type="qcurve" smooth="yes"/>
      <point x="102.43583252190848" y="1408.5150925024343"/>
      <point x="223.3501618463644" y="1528.1261927945473"/>
      <point x="335.71509250243423" y="1528.1261927945473" type="qcurve" smooth="yes"/>
      <point x="447.9569462354272" y="1528.1261927945473"/>
      <point x="568.3789678675754" y="1408.8843232716652"/>
      <point x="568.3789678675754" y="1322.0307692307692" type="qcurve" smooth="yes"/>
      <point x="568.3789678675754" y="1232.7925998052579"/>
      <point x="447.3415616200426" y="1114.4430379746836"/>
      <point x="336.09970788704965" y="1114.4430379746836" type="qcurve" smooth="yes"/>
      <point x="223.8578541540567" y="1114.4430379746836"/>
      <point x="102.43583252190848" y="1232.7925998052579"/>
    </contour>
  </outline>
</glyph>
<glyph name="k" format="2">
  <advance width="1335"/>
  <unicode hex="006B"/>
  <outline>
    <contour>
      <point x="112.00000000000001" y="0.0" type="line"/>
      <point x="112.00000000000001" y="1526.4" type="line"/>
      <point x="529.0720311587147" y="1526.4" type="line"/>
      <point x="529.0720311587147" y="790.682535540409" type="line"/>
      <point x="817.6907497565727" y="1058.6923076923076" type="line"/>
      <point x="1335.2264849074975" y="1058.6923076923076" type="line"/>
      <point x="529.0720311587147" y="319.787053554041" type="line"/>
      <point x="529.0720311587147" y="0.0" type="line"/>
    </contour>
    <contour>
      <point x="868.7879259980525" y="0.0" type="line"/>
      <point x="499.6277565725414" y="477.2701168451801" type="line"/>
      <point x="785.153805258033" y="768.1372969814995" type="line"/>
      <point x="1381.3009503407986" y="0.0" type="line"/>
    </contour>
  </outline>
</glyph>
<glyph name="l" format="2">
  <advance width="636"/>
  <unicode hex="006C"/>
  <outline>
    <contour>
      <point x="109.0153846153846" y="0.0" type="line"/>
      <point x="109.0153846153846" y="1526.4" type="line"/>
      <point x="526.9489542356378" y="1526.4" type="line"/>
      <point x="526.9489542356378" y="0.0" type="line"/>
    </contour>
  </outline>
</glyph>
<glyph name="m" format="2">
  <advance width="2265"/>
  <unicode hex="006D"/>
  <outline>
    <contour>
      <point x="112.00000000000001" y="-0.12307692307692308" type="line"/>
      <point x="112.00000000000001" y="1058.2886153846155" type="line"/>
      <point x="517.0566465433301" y="1058.2886153846155" type="line"/>
      <point x="523.1951080817917" y="921.5655384615384" type="line"/>
      <point x="525.5104926971762" y="921.5655384615384" type="line"/>
      <point x="585.1615462512171" y="1006.9886153846155"/>
      <point x="783.907505355404" y="1079.150153846154"/>
      <point x="893.9963349561831" y="1079.150153846154" type="qcurve" smooth="yes"/>
      <point x="1029.1646854917235" y="1079.150153846154"/>
      <point x="1233.992958130477" y="967.504"/>
      <point x="1276.4008958130476" y="872.6116923076922" type="qcurve"/>
      <point x="1274.6796806231741" y="872.6116923076922" type="line"/>
      <point x="1334.0069717624149" y="969.8886153846153"/>
      <point x="1596.8124128529696" y="1079.3963076923078"/>
      <point x="1728.1821343719573" y="1079.3963076923078" type="qcurve" smooth="yes"/>
      <point x="1914.127653359299" y="1079.3963076923078"/>
      <point x="2162.4930165530677" y="836.8655384615384"/>
      <point x="2162.4930165530677" y="553.1963076923076" type="qcurve" smooth="yes"/>
      <point x="2162.4930165530677" y="-0.12307692307692308" type="line"/>
      <point x="1746.1748315481987" y="-0.12307692307692308" type="line"/>
      <point x="1746.1748315481987" y="539.8116923076923" type="line" smooth="yes"/>
      <point x="1743.2979084712754" y="665.3655384615384"/>
      <point x="1652.3671392405063" y="773.6424615384615"/>
      <point x="1575.382523855891" y="773.6424615384615" type="qcurve" smooth="yes"/>
      <point x="1506.0979084712756" y="773.6424615384615"/>
      <point x="1380.6440623174294" y="683.5886153846153"/>
      <point x="1346.282523855891" y="615.304" type="qcurve"/>
      <point x="1346.282523855891" y="-0.12307692307692308" type="line"/>
      <point x="927.9643388510224" y="-0.12307692307692308" type="line"/>
      <point x="927.9643388510224" y="539.8116923076923" type="line" smooth="yes"/>
      <point x="926.0874157740993" y="665.3655384615383"/>
      <point x="825.0335696202532" y="773.6424615384615"/>
      <point x="747.9258773125609" y="773.6424615384615" type="qcurve" smooth="yes"/>
      <point x="680.6412619279455" y="773.6424615384615"/>
      <point x="564.3104926971762" y="683.4655384615384"/>
      <point x="529.0720311587147" y="615.180923076923" type="qcurve"/>
      <point x="529.0720311587147" y="-0.12307692307692308" type="line"/>
    </contour>
  </outline>
</glyph>
<glyph name="n" format="2">
  <advance width="1456"/>
  <unicode hex="006E"/>
  <anchor x="664.5629542356378" y="1058.4116923076924" name="top"/>
  <outline>
    <contour>
      <point x="112.00000000000001" y="0.0" type="line"/>
      <point x="112.00000000000001" y="1058.4116923076924" type="line"/>
      <point x="517.7951080817916" y="1058.4116923076924" type="line"/>
      <point x="523.9335696202531" y="926.4116923076923" type="line"/>
      <point x="525.8797234664071" y="926.4116923076923" type="line"/>
      <point x="571.6304716119856" y="996.9263577857871"/>
      <point x="772.7536592015579" y="1080.5193846153848"/>
      <point x="895.5347964946445" y="1080.5193846153848" type="qcurve" smooth="yes"/>
      <point x="1095.0215904735564" y="1080.5193846153848"/>
      <point x="1353.8209853943526" y="868.3621327069877"/>
      <point x="1353.8209853943526" y="585.580923076923" type="qcurve" smooth="yes"/>
      <point x="1353.8209853943526" y="0.0" type="line"/>
      <point x="935.7489542356378" y="0.0" type="line"/>
      <point x="935.7489542356378" y="582.5655384615384" type="line" smooth="yes"/>
      <point x="935.7489542356378" y="698.0820687397709"/>
      <point x="841.1198572456711" y="773.6424615384615"/>
      <point x="754.0643388510224" y="773.6424615384615" type="qcurve" smooth="yes"/>
      <point x="688.2936013411096" y="773.6424615384615"/>
      <point x="562.6333552978919" y="686.6008484954087"/>
      <point x="529.0720311587147" y="618.180923076923" type="qcurve"/>
      <point x="529.0720311587147" y="0.0" type="line"/>
    </contour>
  </outline>
</glyph>
<glyph name="p" format="2">
  <advance width="1497"/>
  <unicode hex="0070"/>
  <outline>
    <contour>
      <point x="112.00000000000001" y="-416.0" type="line"/>
      <point x="112.00000000000001" y="1058.4116923076924" type="line"/>
      <point x="509.6874157740993" y="1058.4116923076924" type="line"/>
      <point x="515.8258773125608" y="942.2270769230769" type="line"/>
      <point x="518.1412619279455" y="942.3501538461538" type="line"/>
      <point x="557.0557156767284" y="1004.1193846153845"/>
      <point x="764.0401363193768" y="1079.7655384615384"/>
      <point x="882.8424888023369" y="1079.7655384615384" type="qcurve" smooth="yes"/>
      <point x="1129.1989834469327" y="1079.7655384615384"/>
      <point x="1435.4769386562805" y="780.958515837104"/>
      <point x="1435.4769386562805" y="545.9443076923077" type="qcurve" smooth="yes"/>
      <point x="1435.4769386562805" y="513.9443076923077" type="line" smooth="yes"/>
      <point x="1435.4769386562805" y="280.83698113207544"/>
      <point x="1137.7220603700098" y="-20.0"/>
      <point x="901.6117195715676" y="-20.0" type="qcurve" smooth="yes"/>
      <point x="783.6862901655307" y="-20.0"/>
      <point x="574.8470925024343" y="41.90769230769231"/>
      <point x="528.702800389484" y="102.44615384615385" type="qcurve"/>
      <point x="528.702800389484" y="-416.0" type="line"/>
    </contour>
    <contour>
      <point x="528.702800389484" y="420.41538461538465" type="line"/>
      <point x="553.3643388510225" y="365.1461538461538"/>
      <point x="698.9566465433301" y="282.83076923076925"/>
      <point x="774.8181850048685" y="282.83076923076925" type="qcurve" smooth="yes"/>
      <point x="889.4258773125609" y="282.83076923076925"/>
      <point x="1007.702800389484" y="393.3465543345543"/>
      <point x="1007.702800389484" y="510.8673846153846" type="qcurve" smooth="yes"/>
      <point x="1007.702800389484" y="547.9135384615385" type="line" smooth="yes"/>
      <point x="1007.702800389484" y="668.1549349112425"/>
      <point x="889.302800389484" y="775.5809230769231"/>
      <point x="775.3104926971762" y="775.5809230769231" type="qcurve" smooth="yes"/>
      <point x="698.8335696202532" y="775.5809230769231"/>
      <point x="554.1181850048686" y="693.3886153846153"/>
      <point x="528.702800389484" y="637.9963076923076" type="qcurve"/>
    </contour>
  </outline>
</glyph>
<glyph name="q" format="2">
  <advance width="1497"/>
  <unicode hex="0071"/>
  <outline>
    <contour>
      <point x="60.76923076923077" y="513.0307692307692" type="qcurve" smooth="yes"/>
      <point x="60.76923076923077" y="545.0307692307692" type="line" smooth="yes"/>
      <point x="60.76923076923077" y="776.6"/>
      <point x="377.09795520934756" y="1078.6923076923076"/>
      <point x="613.4021421616358" y="1078.6923076923076" type="qcurve" smooth="yes"/>
      <point x="748.596494644596" y="1078.6923076923076"/>
      <point x="928.073222979552" y="1003.4307692307692"/>
      <point x="972.5310613437197" y="940.9076923076923" type="qcurve"/>
      <point x="973.915676728335" y="940.9076923076923" type="line"/>
      <point x="981.0541382667966" y="1058.6923076923076" type="line"/>
      <point x="1385.2997078870499" y="1058.6923076923076" type="line"/>
      <point x="1385.2997078870499" y="-416.24615384615385" type="line"/>
      <point x="969.2849074975658" y="-416.24615384615385" type="line"/>
      <point x="969.2849074975658" y="110.04245374878286" type="line"/>
      <point x="969.7772151898735" y="109.95384615384616" type="line"/>
      <point x="923.7384615384616" y="46.707692307692305"/>
      <point x="755.5041869522883" y="-20.0"/>
      <point x="614.4021421616359" y="-20.0" type="qcurve" smooth="yes"/>
      <point x="367.482570593963" y="-20.0"/>
      <point x="60.76923076923077" y="282.33846153846156"/>
    </contour>
    <contour>
      <point x="486.6664459591042" y="514.4366153846155" type="line" smooth="yes"/>
      <point x="486.6664459591042" y="404.3157851037851"/>
      <point x="609.6972151898734" y="282.83076923076925"/>
      <point x="723.5510613437195" y="282.83076923076925" type="qcurve" smooth="yes"/>
      <point x="806.535676728335" y="282.83076923076925"/>
      <point x="942.2510613437196" y="365.2692307692308"/>
      <point x="967.9125998052581" y="420.53846153846155" type="qcurve"/>
      <point x="967.9125998052581" y="637.8732307692306" type="line"/>
      <point x="942.2510613437196" y="693.1424615384615"/>
      <point x="806.535676728335" y="775.5809230769231"/>
      <point x="723.5510613437195" y="775.5809230769231" type="qcurve" smooth="yes"/>
      <point x="609.6972151898734" y="775.5809230769231"/>
      <point x="486.6664459591042" y="652.8318579881657"/>
      <point x="486.6664459591042" y="543.7289230769231" type="qcurve" smooth="yes"/>
    </contour>
  </outline>
</glyph>
<glyph name="r" format="2">
  <advance width="889"/>
  <unicode hex="0072"/>
  <outline>
    <contour>
      <point x="112.00000000000001" y="0.0" type="line"/>
      <point x="112.00000000000001" y="1058.4116923076924" type="line"/>
      <point x="519.5181850048685" y="1058.4116923076924" type="line"/>
      <point x="525.6566465433301" y="942.8116923076923" type="line"/>
      <point x="527.602800389484" y="942.8116923076923" type="line"/>
      <point x="563.9040691363765" y="1001.1178890038864"/>
      <point x="696.9104926971763" y="1086.1963076923078"/>
      <point x="773.0335696202532" y="1086.1963076923078" type="qcurve" smooth="yes"/>
      <point x="796.2335696202532" y="1086.1963076923078"/>
      <point x="842.4489542356379" y="1076.3193846153847"/>
      <point x="852.1335696202532" y="1072.3193846153847" type="qcurve"/>
      <point x="852.1335696202532" y="724.3655384615384" type="line"/>
      <point x="833.3258773125609" y="729.2270769230769"/>
      <point x="791.2489542356377" y="733.8424615384614"/>
      <point x="764.7181850048686" y="733.8424615384614" type="qcurve" smooth="yes"/>
      <point x="689.3659449372439" y="733.8424615384614"/>
      <point x="560.536450331714" y="654.1717762174139"/>
      <point x="531.1643388510224" y="592.1963076923076" type="qcurve"/>
      <point x="531.1643388510224" y="0.0" type="line"/>
    </contour>
  </outline>
</glyph>
<glyph name="s" format="2">
  <advance width="1332"/>
  <unicode hex="0073"/>
  <outline>
    <contour>
      <point x="48.153846153846146" y="357.31992210321323" type="line"/>
      <point x="454.6412619279455" y="356.33530671859785" type="line"/>
      <point x="454.6412619279455" y="326.9723076923077" type="line" smooth="yes"/>
      <point x="454.6412619279455" y="272.1784615384616"/>
      <point x="563.6428003894839" y="229.47692307692307"/>
      <point x="660.102800389484" y="229.47692307692307" type="qcurve" smooth="yes"/>
      <point x="759.1117821591594" y="229.47692307692307"/>
      <point x="848.0874391431353" y="270.46153846153845"/>
      <point x="848.0874391431353" y="313.03271665043815" type="qcurve" smooth="yes"/>
      <point x="848.0874391431353" y="356.33807205452774"/>
      <point x="734.1261927945473" y="383.1955209347614"/>
      <point x="512.6775073028236" y="404.5801363193768" type="qcurve" smooth="yes"/>
      <point x="269.4442064264849" y="430.7032132424537"/>
      <point x="107.09036027263875" y="613.6626598411261"/>
      <point x="107.09036027263875" y="736.1965413826679" type="qcurve" smooth="yes"/>
      <point x="107.09036027263875" y="889.2715241331725"/>
      <point x="415.70881402142163" y="1089.2732307692308"/>
      <point x="683.9581071080817" y="1089.2732307692308" type="qcurve" smooth="yes"/>
      <point x="950.8305211295035" y="1089.2732307692308"/>
      <point x="1267.7685998052582" y="862.64147030185"/>
      <point x="1267.7685998052582" y="721.3963466407012" type="qcurve" smooth="yes"/>
      <point x="1267.7685998052582" y="693.2948860759494" type="line"/>
      <point x="862.4042609542356" y="693.2948860759494" type="line"/>
      <point x="862.4042609542356" y="711.9188393378773" type="line" smooth="yes"/>
      <point x="862.4042609542356" y="768.8309542356377"/>
      <point x="770.9964235086622" y="827.457846153846"/>
      <point x="681.8657994157741" y="827.457846153846" type="qcurve" smooth="yes"/>
      <point x="593.7275376775124" y="827.457846153846"/>
      <point x="514.311953261928" y="796.7679810822088"/>
      <point x="514.1888763388511" y="761.5437663096398" type="qcurve" smooth="yes"/>
      <point x="514.0657994157741" y="726.296288218111"/>
      <point x="592.3818522034044" y="689.5887711511567"/>
      <point x="828.6874391431354" y="666.1505394352483" type="qcurve" smooth="yes"/>
      <point x="1070.1107236159269" y="642.287813470747"/>
      <point x="1267.1671392405062" y="472.3640401931359"/>
      <point x="1267.1671392405062" y="339.9393962999027" type="qcurve" smooth="yes"/>
      <point x="1267.1671392405062" y="176.84596153846155"/>
      <point x="954.7203154819864" y="-29.630769230769232"/>
      <point x="662.0720311587147" y="-29.630769230769232" type="qcurve" smooth="yes"/>
      <point x="372.78030769230764" y="-29.630769230769232"/>
      <point x="49.5076923076923" y="174.4109230769231"/>
      <point x="48.27692307692307" y="339.20307692307694" type="qcurve" smooth="yes"/>
    </contour>
  </outline>
</glyph>
<glyph name="t" format="2">
  <advance width="847"/>
  <unicode hex="0074"/>
  <outline>
    <contour>
      <point x="0.24615384615384617" y="760.6578461538461" type="line"/>
      <point x="0.24615384615384617" y="1058.4116923076924" type="line"/>
      <point x="814.5489542356378" y="1058.4116923076924" type="line"/>
      <point x="814.5489542356378" y="760.6578461538461" type="line"/>
    </contour>
    <contour>
      <point x="171.55384615384617" y="371.7230769230769" type="qcurve" smooth="yes"/>
      <point x="171.55384615384617" y="916.957846153846" type="line"/>
      <point x="174.01538461538462" y="944.6193846153845" type="line"/>
      <point x="174.01538461538462" y="1294.7692307692307" type="line"/>
      <point x="586.9028003894839" y="1294.7692307692307" type="line"/>
      <point x="586.9028003894839" y="393.63076923076926" type="line" smooth="yes"/>
      <point x="586.9028003894839" y="321.04615384615386"/>
      <point x="650.2951080817916" y="262.4"/>
      <point x="697.9720311587147" y="262.4" type="qcurve" smooth="yes"/>
      <point x="721.7509485376321" y="262.4"/>
      <point x="769.0104926971762" y="274.9769230769231"/>
      <point x="789.2566465433301" y="283.16923076923075" type="qcurve"/>
      <point x="789.2566465433301" y="1.7230769230769232" type="line"/>
      <point x="765.602800389484" y="-10.03076923076923"/>
      <point x="667.4335696202531" y="-28.76923076923077"/>
      <point x="609.9489542356378" y="-28.76923076923077" type="qcurve" smooth="yes"/>
      <point x="413.6833456669912" y="-28.76923076923077"/>
      <point x="171.55384615384617" y="165.33846153846156"/>
    </contour>
  </outline>
</glyph>
<glyph name="u" format="2">
  <advance width="1456"/>
  <unicode hex="0075"/>
  <anchor x="637.8772619279455" y="1058.4116923076924" name="top"/>
  <outline>
    <contour>
      <point x="102.4923076923077" y="502.83076923076925" type="qcurve" smooth="yes"/>
      <point x="102.4923076923077" y="1058.4116923076924" type="line"/>
      <point x="519.5643388510224" y="1058.4116923076924" type="line"/>
      <point x="519.5643388510224" y="514.6153846153846" type="line" smooth="yes"/>
      <point x="517.5643388510224" y="391.0615384615385"/>
      <point x="622.002800389484" y="283.53846153846155"/>
      <point x="696.2489542356377" y="283.53846153846155" type="qcurve" smooth="yes"/>
      <point x="763.1643388510224" y="283.53846153846155"/>
      <point x="892.6335696202532" y="370.46923076923076"/>
      <point x="926.2412619279455" y="439.0" type="qcurve"/>
      <point x="926.2412619279455" y="1058.4116923076924" type="line"/>
      <point x="1344.3132930866602" y="1058.4116923076924" type="line"/>
      <point x="1344.3132930866602" y="0.0" type="line"/>
      <point x="938.5181850048685" y="0.0" type="line"/>
      <point x="931.3797234664071" y="132.0" type="line"/>
      <point x="929.4335696202531" y="132.0" type="line"/>
      <point x="875.8055929892892" y="47.42307692307693"/>
      <point x="662.4673261927945" y="-21.107692307692307"/>
      <point x="552.7784965920156" y="-21.107692307692307" type="qcurve" smooth="yes"/>
      <point x="355.21151703992206" y="-21.107692307692307"/>
      <point x="102.4923076923077" y="219.9692307692308"/>
    </contour>
  </outline>
</glyph>
<glyph name="v" format="2">
  <advance width="1226"/>
  <unicode hex="0076"/>
  <outline>
    <contour>
      <point x="-42.23076923076923" y="1058.4116923076924" type="line"/>
      <point x="400.66944498539436" y="1058.4116923076924" type="line"/>
      <point x="594.8663018500487" y="514.6266017526777" type="line" smooth="yes"/>
      <point x="606.6176942551119" y="479.0286095423564"/>
      <point x="627.8970710808179" y="404.7189094449854"/>
      <point x="637.650917234664" y="368.0419863680623" type="qcurve"/>
      <point x="640.1586095423563" y="368.0419863680623" type="line"/>
      <point x="650.9124556962024" y="404.71890944498534"/>
      <point x="669.4543018500486" y="478.0286095423564"/>
      <point x="681.9432249269717" y="514.6266017526777" type="qcurve" smooth="yes"/>
      <point x="878.0255735150926" y="1058.4116923076924" type="line"/>
      <point x="1254.4766504381694" y="1058.4116923076924" type="line"/>
      <point x="832.6458812074003" y="0.0" type="line"/>
      <point x="370.85608568646546" y="0.0" type="line"/>
    </contour>
  </outline>
</glyph>
<glyph name="w" format="2">
  <advance width="1980"/>
  <unicode hex="0077"/>
  <outline>
    <contour>
      <point x="0.6923076923076934" y="1058.4116923076924" type="line"/>
      <point x="435.3710613437196" y="1058.4116923076924" type="line"/>
      <point x="557.8281869522882" y="562.6892891918208" type="line" smooth="yes"/>
      <point x="567.1880331061343" y="523.7969814995131"/>
      <point x="579.6421110029212" y="452.69766309639726"/>
      <point x="588.3611957156767" y="415.40029211295035" type="qcurve"/>
      <point x="593.9919649464459" y="415.40029211295035" type="line"/>
      <point x="604.3461032132424" y="453.4951314508276"/>
      <point x="618.2041733203505" y="523.7969814995131"/>
      <point x="629.6332502434275" y="562.6892891918208" type="qcurve" smooth="yes"/>
      <point x="777.8953768257059" y="1058.4116923076924" type="line"/>
      <point x="1261.7790613437194" y="1058.4116923076924" type="line"/>
      <point x="1421.0535423563779" y="562.4676728334956" type="line" smooth="yes"/>
      <point x="1435.131542356378" y="523.8215189873417"/>
      <point x="1448.0840194741968" y="452.3481012658228"/>
      <point x="1458.1575345666993" y="413.7905550146056" type="qcurve"/>
      <point x="1464.1575345666993" y="413.7905550146056" type="line"/>
      <point x="1472.7535423563777" y="452.4367088607595"/>
      <point x="1483.4389737098345" y="523.6443037974683"/>
      <point x="1494.7643505355404" y="562.4676728334956" type="qcurve" smooth="yes"/>
      <point x="1622.9341460564754" y="1058.4116923076924" type="line"/>
      <point x="1985.7501460564754" y="1058.4116923076924" type="line"/>
      <point x="1691.042453748783" y="0.0" type="line"/>
      <point x="1192.1407088607596" y="0.0" type="line"/>
      <point x="1030.9122531645571" y="504.80505160662136" type="line" smooth="yes"/>
      <point x="1018.4381908471274" y="540.0052463485881"/>
      <point x="1004.5650282375852" y="610.2184888023369"/>
      <point x="996.308358325219" y="646.2161518987342" type="qcurve"/>
      <point x="992.554512171373" y="646.2161518987342" type="line"/>
      <point x="984.2437039922103" y="609.5982356377799"/>
      <point x="968.3197565725413" y="539.8280311587147"/>
      <point x="957.2853787731256" y="504.80505160662136" type="qcurve" smooth="yes"/>
      <point x="817.130146056475" y="0.0" type="line"/>
      <point x="295.03076923076924" y="0.0" type="line"/>
    </contour>
  </outline>
</glyph>
<glyph name="x" format="2">
  <advance width="1211"/>
  <unicode hex="0078"/>
  <outline>
    <contour>
      <point x="0.8856864654333023" y="0.0" type="line"/>
      <point x="404.972541382668" y="627.9443076923078" type="line"/>
      <point x="525.2085491723467" y="627.9443076923077" type="line"/>
      <point x="802.2359104186952" y="1058.4116923076924" type="line"/>
      <point x="1179.1611489776046" y="1058.4116923076924" type="line"/>
      <point x="775.5380720545277" y="452.11353846153844" type="line"/>
      <point x="651.4479259980526" y="452.11353846153844" type="line"/>
      <point x="377.92484907497567" y="0.0" type="line"/>
    </contour>
    <contour>
      <point x="12.374001947419671" y="1058.4116923076924" type="line"/>
      <point x="500.88013631937685" y="1058.4116923076924" type="line"/>
      <point x="767.335735150925" y="630.5326231742941" type="line"/>
      <point x="798.9972736124635" y="630.5326231742941" type="line"/>
      <point x="1215.3238558909445" y="0.0" type="line"/>
      <point x="725.9316455696203" y="0.0" type="line"/>
      <point x="446.7168451801363" y="454.79474586173313" type="line"/>
      <point x="414.67069133398246" y="454.7947458617332" type="line"/>
    </contour>
  </outline>
</glyph>
<glyph name="y" format="2">
  <advance width="1214"/>
  <unicode hex="0079"/>
  <anchor x="575.7912950340799" y="1058.4116923076924" name="top"/>
  <outline>
    <contour>
      <point x="92.14667964946446" y="-414.5230769230769" type="qcurve"/>
      <point x="99.65437195715676" y="-130.15384615384616" type="line"/>
      <point x="128.8522181110029" y="-138.22307692307692"/>
      <point x="198.50729503407982" y="-147.2923076923077"/>
      <point x="229.89744888023367" y="-147.2923076923077" type="qcurve" smooth="yes"/>
      <point x="313.01265433300875" y="-147.2923076923077"/>
      <point x="449.6615384615385" y="-100.50749756572542"/>
      <point x="488.00019474196694" y="19.414800389483933" type="qcurve" smooth="yes"/>
      <point x="386.34839337877315" y="8.006231742940605" type="line"/>
      <point x="-32.46153846153846" y="1058.4116923076924" type="line"/>
      <point x="410.68969814995125" y="1058.4116923076924" type="line"/>
      <point x="597.0643777994158" y="518.170905550146" type="line" smooth="yes"/>
      <point x="609.4408315481986" y="481.9230593962999"/>
      <point x="629.3413008763388" y="408.0515287244401"/>
      <point x="639.6415929892892" y="370.8478286270691" type="qcurve"/>
      <point x="642.0262083739045" y="370.8478286270691" type="line"/>
      <point x="653.5381850048685" y="407.96292112950346"/>
      <point x="673.8139766309639" y="480.302806231743"/>
      <point x="685.4353612463485" y="517.673729308666" type="qcurve" smooth="yes"/>
      <point x="878.1454488802337" y="1058.4116923076924" type="line"/>
      <point x="1236.7897565725414" y="1058.4116923076924" type="line"/>
      <point x="788.2589873417721" y="-110.95384615384614" type="line" smooth="yes"/>
      <point x="726.8506796494644" y="-278.9153846153846"/>
      <point x="445.91744888023374" y="-436.0"/>
      <point x="267.0174488802337" y="-436.0" type="qcurve" smooth="yes"/>
      <point x="209.07775657254135" y="-436.0"/>
      <point x="126.31160272638752" y="-426.7692307692307"/>
    </contour>
  </outline>
</glyph>
<glyph name="z" format="2">
  <advance width="1233"/>
  <unicode hex="007A"/>
  <outline>
    <contour>
      <point x="53.230769230769226" y="0.0" type="line"/>
      <point x="53.230769230769226" y="254.3230769230769" type="line"/>
      <point x="553.3912366114898" y="752.1692307692308" type="line"/>
      <point x="62.707692307692305" y="751.8886153846154" type="line"/>
      <point x="62.707692307692305" y="1058.4116923076924" type="line"/>
      <point x="1155.9658773125607" y="1058.4116923076924" type="line"/>
      <point x="1155.9658773125607" y="811.9424615384614" type="line"/>
      <point x="645.8777020447906" y="304.0615384615384" type="line"/>
      <point x="1195.4428003894839" y="304.0615384615384" type="line"/>
      <point x="1195.4428003894839" y="0.0" type="line"/>
    </contour>
  </outline>
</glyph>
<glyph name="braceleft" format="2">
  <advance width="812"/>
  <unicode hex="007B"/>
  <outline>
    <contour>
      <point x="795.660923076923" y="-312.0" type="line"/>
      <point x="485.4206153846154" y="-314.46153846153845"/>
      <point x="104.63353846153848" y="-140.07692307692307"/>
      <point x="149.8830769230769" y="83.0" type="qcurve" smooth="yes"/>
      <point x="182.39384615384617" y="285.30769230769226" type="line" smooth="yes"/>
      <point x="200.28615384615387" y="384.9769230769231"/>
      <point x="122.91723076923077" y="447.24615384615385"/>
      <point x="57.3" y="447.24615384615385" type="qcurve"/>
      <point x="57.3" y="700.7538461538461" type="line"/>
      <point x="122.91723076923077" y="700.7538461538461"/>
      <point x="200.28615384615387" y="763.0230769230769"/>
      <point x="182.39384615384617" y="862.6923076923077" type="qcurve" smooth="yes"/>
      <point x="149.8830769230769" y="1065.0" type="line" smooth="yes"/>
      <point x="104.87969230769232" y="1286.9692307692308"/>
      <point x="485.4206153846154" y="1461.2307692307693"/>
      <point x="795.660923076923" y="1460.0" type="qcurve"/>
      <point x="795.660923076923" y="1185.5076923076924" type="line"/>
      <point x="708.5544615384616" y="1185.5076923076924"/>
      <point x="517.5206153846154" y="1152.3538461538462"/>
      <point x="542.1501538461538" y="1013.8461538461538" type="qcurve" smooth="yes"/>
      <point x="576.660923076923" y="814.0" type="line" smooth="yes"/>
      <point x="592.960923076923" y="728.123076923077"/>
      <point x="517.660923076923" y="610.0"/>
      <point x="417.2224615384615" y="574.0" type="qcurve"/>
      <point x="517.660923076923" y="538.0"/>
      <point x="591.960923076923" y="420.87692307692305"/>
      <point x="576.660923076923" y="334.0" type="qcurve" smooth="yes"/>
      <point x="542.1501538461538" y="134.15384615384616" type="line" smooth="yes"/>
      <point x="517.5206153846154" y="-4.353846153846153"/>
      <point x="708.5544615384616" y="-37.50769230769231"/>
      <point x="795.660923076923" y="-37.50769230769231" type="qcurve"/>
    </contour>
  </outline>
</glyph>
<glyph name="bar" format="2">
  <advance width="691"/>
  <unicode hex="007C"/>
  <outline>
    <contour>
      <point x="175.23076923076923" y="-416.0" type="line"/>
      <point x="175.23076923076923" y="1376.0" type="line"/>
      <point x="517.252923076923" y="1376.0" type="line"/>
      <point x="517.252923076923" y="-416.0" type="line"/>
    </contour>
  </outline>
</glyph>
<glyph name="braceright" format="2">
  <advance width="812"/>
  <unicode hex="007D"/>
  <outline>
    <contour>
      <point x="22.738461538461536" y="-312.24615384615385" type="qcurve"/>
      <point x="22.738461538461536" y="-37.753846153846155" type="line"/>
      <point x="109.84492307692308" y="-37.753846153846155"/>
      <point x="266.87876923076925" y="-3.599999999999998"/>
      <point x="235.24923076923076" y="133.90769230769232" type="qcurve" smooth="yes"/>
      <point x="192.73846153846154" y="333.75384615384615" type="line" smooth="yes"/>
      <point x="173.43846153846152" y="419.6307692307692"/>
      <point x="260.7384615384616" y="537.7538461538461"/>
      <point x="362.17692307692306" y="573.7538461538461" type="qcurve"/>
      <point x="260.7384615384616" y="609.7538461538462"/>
      <point x="173.43846153846152" y="727.876923076923"/>
      <point x="192.73846153846154" y="813.7538461538461" type="qcurve" smooth="yes"/>
      <point x="235.24923076923076" y="1013.6000000000001" type="line" smooth="yes"/>
      <point x="266.87876923076925" y="1151.1076923076923"/>
      <point x="109.84492307692308" y="1185.2615384615385"/>
      <point x="22.738461538461536" y="1185.2615384615385" type="qcurve"/>
      <point x="22.738461538461536" y="1459.753846153846" type="line"/>
      <point x="332.9787692307692" y="1462.2153846153847"/>
      <point x="682.7658461538462" y="1286.8307692307692"/>
      <point x="628.5163076923077" y="1064.753846153846" type="qcurve" smooth="yes"/>
      <point x="585.0055384615384" y="862.4461538461538" type="line" smooth="yes"/>
      <point x="563.1132307692308" y="763.776923076923"/>
      <point x="695.4821538461539" y="700.5076923076923"/>
      <point x="762.0993846153846" y="700.5076923076923" type="qcurve"/>
      <point x="762.0993846153846" y="447.0" type="line"/>
      <point x="695.4821538461539" y="447.0"/>
      <point x="563.1132307692308" y="383.7307692307692"/>
      <point x="585.0055384615384" y="285.0615384615384" type="qcurve" smooth="yes"/>
      <point x="628.5163076923077" y="82.75384615384615" type="line" smooth="yes"/>
      <point x="682.5196923076923" y="-138.2153846153846"/>
      <point x="332.9787692307692" y="-313.4769230769231"/>
    </contour>
  </outline>
</glyph>
<glyph name="asciitilde" format="2">
  <advance width="1592"/>
  <unicode hex="007E"/>
  <outline>
    <contour>
      <point x="246.16923076923078" y="416.38461538461536" type="qcurve"/>
      <point x="246.16923076923078" y="808.2923076923078" type="line"/>
      <point x="299.8" y="870.1384615384616"/>
      <point x="453.4307692307693" y="937.3846153846154"/>
      <point x="532.0153846153846" y="938.2615384615385" type="qcurve" smooth="yes"/>
      <point x="568.0" y="939.1384615384616"/>
      <point x="743.8153846153846" y="884.4769230769231"/>
      <point x="817.6307692307693" y="849.9692307692308" type="qcurve" smooth="yes"/>
      <point x="882.8" y="821.723076923077"/>
      <point x="1042.7384615384617" y="774.2153846153847"/>
      <point x="1074.6" y="774.2153846153847" type="qcurve" smooth="yes"/>
      <point x="1149.6" y="774.2153846153847"/>
      <point x="1293.2615384615385" y="852.876923076923"/>
      <point x="1348.4923076923078" y="922.7538461538462" type="qcurve"/>
      <point x="1348.4923076923078" y="522.9384615384615" type="line"/>
      <point x="1296.3384615384616" y="465.4"/>
      <point x="1153.676923076923" y="399.12307692307695"/>
      <point x="1075.8461538461538" y="399.12307692307695" type="qcurve" smooth="yes"/>
      <point x="1034.9846153846154" y="399.12307692307695"/>
      <point x="854.9538461538461" y="454.03076923076924"/>
      <point x="776.5538461538462" y="489.53846153846155" type="qcurve" smooth="yes"/>
      <point x="713.123076923077" y="519.0461538461539"/>
      <point x="555.676923076923" y="561.6923076923077"/>
      <point x="529.1846153846154" y="561.6923076923077" type="qcurve" smooth="yes"/>
      <point x="449.4923076923077" y="561.6923076923077"/>
      <point x="298.81538461538463" y="483.55384615384617"/>
    </contour>
  </outline>
</glyph>
<glyph name="ordmasculine" format="2">
  <advance width="932"/>
  <unicode hex="00BA"/>
  <guideline x="0" y="1975.0" angle="0" identifier="Jnt0R9CyOf"/>
  <outline>
    <contour>
      <point x="123.0" y="1043.0" type="qcurve"/>
      <point x="123.0" y="908.1894374282434"/>
      <point x="285.9244546498278" y="744.2923076923076"/>
      <point x="424.66153846153844" y="744.2923076923076" type="curve"/>
      <point x="562.0897818599311" y="763.2461538461539"/>
      <point x="745.5846153846154" y="961.604822043628"/>
      <point x="764.9076923076923" y="1096.4153846153847" type="qcurve" smooth="yes"/>
      <point x="784.3538461538461" y="1096.4153846153847"/>
      <point x="807.0" y="1142.6851894374283"/>
      <point x="807.0" y="1124.0" type="qcurve"/>
      <point x="807.0" y="1258.8105625717567"/>
      <point x="645.8293915040184" y="1423.5846153846153"/>
      <point x="507.0923076923077" y="1423.5846153846153" type="curve"/>
      <point x="369.6640642939151" y="1404.899425947187"/>
      <point x="184.37795637198622" y="1205.518254879449"/>
      <point x="165.33846153846156" y="1070.7076923076922" type="qcurve" smooth="yes"/>
      <point x="145.6833524684271" y="1070.7076923076922"/>
      <point x="123.0" y="1024.314810562572"/>
    </contour>
    <contour>
      <point x="286.0" y="1124.0" type="qcurve"/>
      <point x="286.0" y="1043.0" type="line"/>
      <point x="286.0" y="951.9159586681975"/>
      <point x="375.3921928817451" y="830.0"/>
      <point x="467.0" y="830.0" type="qcurve" smooth="yes"/>
      <point x="555.6358208955224" y="830.0"/>
      <point x="645.0" y="951.9159586681975"/>
      <point x="645.0" y="1043.0" type="qcurve"/>
      <point x="645.0" y="1124.0" type="line"/>
      <point x="645.0" y="1212.635820895522"/>
      <point x="555.5602755453501" y="1336.0"/>
      <point x="465.0" y="1336.0" type="qcurve" smooth="yes"/>
      <point x="374.43972445464993" y="1336.0"/>
      <point x="286.0" y="1212.635820895522"/>
    </contour>
  </outline>
</glyph>
<glyph name="fraction" format="2">
  <advance width="342"/>
  <unicode hex="2044"/>
  <guideline x="0" y="901.0" angle="0" identifier="tcCoNUQTdD"/>
  <guideline x="0" y="555.0" angle="0" identifier="0lx51aIE0d"/>
  <outline>
    <contour>
      <point x="732.2307692307692" y="1399.0923076923077" type="line"/>
      <point x="-146.52307692307693" y="-37.93846153846154" type="line"/>
      <point x="-373.41538461538465" y="85.44615384615385" type="line"/>
      <point x="505.723076923077" y="1522.6" type="line"/>
    </contour>
  </outline>
</glyph>
<glyph name="acutecomb.case" format="2">
  <advance width="1024"/>
  <outline>
    <contour>
      <point x="394.5076923076923" y="1622.6307692307691" type="line"/>
      <point x="634.276923076923" y="2022.4307692307693" type="line"/>
      <point x="831.1692307692308" y="1972.2153846153847" type="line"/>
      <point x="504.96923076923076" y="1559.4769230769232" type="line"/>
    </contour>
  </outline>
</glyph>
<glyph name="dollar.rvrn" format="2">
  <advance width="1463"/>
  <outline>
    <contour>
      <point x="75.33164556962025" y="485.256864654333" type="qcurve" smooth="yes"/>
      <point x="75.33164556962025" y="508.8070107108082" type="line"/>
      <point x="493.8313534566699" y="508.8070107108082" type="line"/>
      <point x="493.8313534566699" y="492.8876338851022" type="line" smooth="yes"/>
      <point x="493.70827653359294" y="398.3363193768257"/>
      <point x="663.63135345667" y="302.4424537487829"/>
      <point x="817.7851996105161" y="302.4424537487829" type="qcurve" smooth="yes"/>
      <point x="970.3390457643623" y="302.4424537487829"/>
      <point x="1133.2965920155793" y="386.72151898734177"/>
      <point x="1133.2965920155793" y="453.55345666991235" type="qcurve" smooth="yes"/>
      <point x="1133.2965920155793" y="536.4044790652385"/>
      <point x="1036.9807205452776" y="532.0416747809152"/>
      <point x="697.4027263875365" y="575.2576436222006" type="qcurve" smooth="yes"/>
      <point x="373.97799415774097" y="613.3929892891919"/>
      <point x="102.27380720545278" y="786.2601752677701"/>
      <point x="102.27380720545278" y="986.1887049659204" type="qcurve" smooth="yes"/>
      <point x="102.27380720545278" y="1188.6673807205452"/>
      <point x="476.5014605647517" y="1456.392599805258"/>
      <point x="807.6775073028238" y="1456.392599805258" type="qcurve" smooth="yes"/>
      <point x="1134.3957156767283" y="1456.392599805258"/>
      <point x="1523.623369036027" y="1183.5055501460565"/>
      <point x="1523.623369036027" y="982.442259006816" type="qcurve" smooth="yes"/>
      <point x="1523.623369036027" y="961.0730282375852" type="line"/>
      <point x="1105.3544303797469" y="961.0730282375852" type="line"/>
      <point x="1105.3544303797469" y="975.4268743914314" type="line" smooth="yes"/>
      <point x="1105.3544303797469" y="1055.2741966893866"/>
      <point x="955.6928919182085" y="1157.6516066212268"/>
      <point x="809.4005842259007" y="1157.6516066212268" type="qcurve" smooth="yes"/>
      <point x="661.8276533592989" y="1157.6516066212268"/>
      <point x="523.1661148977605" y="1083.605258033106"/>
      <point x="523.1661148977605" y="1021.757935735151" type="qcurve" smooth="yes"/>
      <point x="523.1661148977605" y="953.4878286270691"/>
      <point x="636.6198636806232" y="954.6284323271665"/>
      <point x="953.3522882181111" y="920.0777020447906" type="qcurve" smooth="yes"/>
      <point x="1273.5776046738074" y="882.8617332035054"/>
      <point x="1555.06582278481" y="703.093670886076"/>
      <point x="1555.06582278481" y="513.7073028237585" type="qcurve" smooth="yes"/>
      <point x="1555.06582278481" y="276.2286270691334"/>
      <point x="1157.364946445959" y="3.5384615384615383"/>
      <point x="819.0159688412853" y="3.5384615384615383" type="qcurve" smooth="yes"/>
      <point x="484.8442064264849" y="3.5384615384615383"/>
      <point x="75.33164556962025" y="260.3357351509251"/>
    </contour>
    <contour>
      <point x="654.4035053554041" y="-130.12307692307692" type="line"/>
      <point x="654.4035053554041" y="98.0" type="line"/>
      <point x="980.959493670886" y="98.0" type="line"/>
      <point x="980.959493670886" y="118.99084712755598" type="line"/>
      <point x="998.9840311587146" y="109.87692307692308" type="line"/>
      <point x="998.9840311587146" y="-130.12307692307692" type="line"/>
    </contour>
    <contour>
      <point x="647.5020447906523" y="1298.0" type="line"/>
      <point x="647.5020447906523" y="1325.9113924050632" type="line"/>
      <point x="629.4775073028238" y="1335.9113924050632" type="line"/>
      <point x="629.4775073028238" y="1625.9113924050632" type="line"/>
      <point x="974.0580331061344" y="1625.9113924050632" type="line"/>
      <point x="974.0580331061344" y="1298.0" type="line"/>
    </contour>
  </outline>
</glyph>
<glyph name="gravecomb.case" format="2">
  <advance width="1024"/>
  <outline>
    <contour>
      <point x="473.0" y="1587.0153846153846" type="line"/>
      <point x="162.3230769230769" y="1960.9538461538461" type="line"/>
      <point x="366.26153846153846" y="2053.8615384615387" type="line"/>
      <point x="627.446153846154" y="1644.2615384615385" type="line"/>
    </contour>
  </outline>
</glyph>
<glyph name="horncomb.case" format="2">
  <advance width="1024"/>
  <outline>
    <contour>
      <point x="382.0" y="1505.113924050633" type="line"/>
      <point x="455.0" y="1505.113924050633" type="line" smooth="yes"/>
      <point x="518.0" y="1505.113924050633"/>
      <point x="593.0" y="1536.113924050633"/>
      <point x="593.0" y="1593.113924050633" type="qcurve" smooth="yes"/>
      <point x="593.0" y="1634.113924050633"/>
      <point x="582.0" y="1707.113924050633"/>
      <point x="573.0" y="1743.113924050633" type="qcurve"/>
      <point x="754.7721518987341" y="1743.113924050633" type="line"/>
      <point x="771.7721518987341" y="1712.113924050633"/>
      <point x="805.7721518987341" y="1602.113924050633"/>
      <point x="805.7721518987341" y="1543.113924050633" type="qcurve" smooth="yes"/>
      <point x="805.7721518987341" y="1455.113924050633"/>
      <point x="626.0" y="1340.873417721519"/>
      <point x="530.0" y="1340.873417721519" type="qcurve" smooth="yes"/>
      <point x="484.0" y="1340.873417721519"/>
      <point x="408.0" y="1357.0506329113923"/>
      <point x="382.0" y="1370.2278481012659" type="qcurve"/>
    </contour>
  </outline>
</glyph>
<glyph name="zerosuperior" format="2">
  <advance width="977"/>
  <outline>
    <contour>
      <point x="58.265822784810126" y="952.4153846153846" type="qcurve" smooth="yes"/>
      <point x="58.265822784810126" y="1192.8153846153846" type="line" smooth="yes"/>
      <point x="58.265822784810126" y="1329.646153846154"/>
      <point x="295.67400194741964" y="1478.4615384615383"/>
      <point x="491.05024342745855" y="1478.4615384615383" type="qcurve" smooth="yes"/>
      <point x="684.4264849074976" y="1478.4615384615383"/>
      <point x="919.6229795520935" y="1329.646153846154"/>
      <point x="919.6229795520935" y="1192.8153846153846" type="qcurve" smooth="yes"/>
      <point x="919.6229795520935" y="952.4153846153846" type="line" smooth="yes"/>
      <point x="919.6229795520935" y="813.3846153846154"/>
      <point x="684.4264849074976" y="662.4615384615385"/>
      <point x="490.05024342745855" y="662.4615384615385" type="qcurve" smooth="yes"/>
      <point x="295.6740019474197" y="662.4615384615385"/>
      <point x="58.265822784810126" y="813.3846153846154"/>
    </contour>
    <contour>
      <point x="382.0736124634859" y="934.676923076923" type="line" smooth="yes"/>
      <point x="382.0736124634859" y="906.5384615384615"/>
      <point x="432.3425511197663" y="886.5846153846154"/>
      <point x="491.05024342745855" y="886.5846153846154" type="qcurve" smooth="yes"/>
      <point x="548.7579357351509" y="886.5846153846154"/>
      <point x="595.8151898734177" y="906.5384615384615"/>
      <point x="595.8151898734177" y="934.676923076923" type="qcurve" smooth="yes"/>
      <point x="595.8151898734177" y="1205.0153846153846" type="line" smooth="yes"/>
      <point x="595.8151898734177" y="1233.153846153846"/>
      <point x="548.1271665043816" y="1254.3384615384616"/>
      <point x="490.05024342745855" y="1254.3384615384616" type="qcurve" smooth="yes"/>
      <point x="431.9733203505355" y="1254.3384615384616"/>
      <point x="382.0736124634859" y="1233.153846153846"/>
      <point x="382.0736124634859" y="1205.0153846153846" type="qcurve" smooth="yes"/>
    </contour>
  </outline>
</glyph>
